<svg xmlns="http://www.w3.org/2000/svg" viewBox="1.0 1.0 92.0 81.0" fill="none">
<path fill="#1a86c8" fill-rule="evenodd" d="M60 5L66 5L66 6L72 6L72 7L75 7L75 8L78 8L78 9L79 9L79 11L77 11L77 12L75 12L75 13L73 13L73 14L72 14L72 16L71 16L71 18L72 18L72 21L73 21L73 23L74 23L74 25L75 25L75 27L76 27L76 28L77 28L77 30L78 30L78 32L79 32L79 34L80 34L80 38L78 38L78 39L77 39L77 38L76 38L76 34L75 34L75 31L74 31L74 28L73 28L73 26L72 26L72 25L71 25L71 23L70 23L70 21L69 21L69 20L68 20L68 19L67 19L67 18L66 18L66 17L65 17L65 16L64 16L64 15L63 15L63 14L62 14L62 13L61 13L61 12L60 12L60 5ZM17 67L18 67L18 68L19 68L19 69L20 69L20 70L21 70L21 71L22 71L22 72L24 72L24 73L26 73L26 74L30 74L30 75L36 75L36 76L37 76L37 78L36 78L36 79L23 79L23 78L17 78L17 67Z"/>
<path fill="#a7ca82" fill-rule="evenodd" d="M35 3L37 3L37 4L35 4L35 3ZM9 4L11 4L11 5L9 5L9 4ZM31 4L32 4L32 5L31 5L31 4ZM11 5L12 5L12 6L11 6L11 5ZM29 5L30 5L30 6L29 6L29 5ZM39 5L40 5L40 7L39 7L39 5ZM7 6L8 6L8 8L7 8L7 6ZM12 7L13 7L13 8L12 8L12 7ZM25 7L26 7L26 8L25 8L25 7ZM38 7L39 7L39 8L38 8L38 7ZM23 8L24 8L24 9L23 9L23 8ZM32 8L34 8L34 9L32 9L32 8ZM13 9L14 9L14 10L13 10L13 9ZM29 9L30 9L30 10L29 10L29 9ZM6 10L7 10L7 12L6 12L6 10ZM19 10L20 10L20 11L19 11L19 10ZM26 10L27 10L27 11L26 11L26 10ZM16 11L17 11L17 12L16 12L16 11ZM23 12L24 12L24 13L23 13L23 12ZM21 13L22 13L22 14L21 14L21 13ZM5 14L6 14L6 18L5 18L5 14ZM20 14L21 14L21 15L20 15L20 14ZM17 16L18 16L18 17L17 17L17 16ZM16 17L17 17L17 18L16 18L16 17ZM15 18L16 18L16 19L15 19L15 18ZM89 18L90 18L90 66L89 66L89 18ZM14 19L15 19L15 20L14 20L14 19ZM13 20L14 20L14 21L13 21L13 20ZM35 20L36 20L36 21L35 21L35 20ZM32 21L33 21L33 22L32 22L32 21ZM40 21L41 21L41 22L40 22L40 21ZM30 22L31 22L31 23L30 23L30 22ZM36 22L38 22L38 23L36 23L36 22ZM4 23L5 23L5 27L4 27L4 23ZM11 23L12 23L12 24L11 24L11 23ZM29 23L30 23L30 24L29 24L29 23ZM34 23L35 23L35 24L34 24L34 23ZM32 24L33 24L33 25L32 25L32 24ZM10 25L11 25L11 26L10 26L10 25ZM30 25L31 25L31 26L30 26L30 25ZM29 26L30 26L30 27L29 27L29 26ZM28 27L29 27L29 28L28 28L28 27ZM9 28L10 28L10 30L9 30L9 28ZM24 28L25 28L25 29L24 29L24 28ZM27 28L28 28L28 29L27 29L27 28ZM23 29L24 29L24 30L23 30L23 29ZM26 29L27 29L27 30L26 30L26 29ZM25 30L26 30L26 31L25 31L25 30ZM22 31L23 31L23 32L22 32L22 31ZM24 31L25 31L25 33L24 33L24 31ZM4 33L5 33L5 35L4 35L4 33ZM8 33L9 33L9 35L8 35L8 33ZM21 33L22 33L22 35L23 35L23 33L24 33L24 35L23 35L23 37L22 37L22 40L20 40L20 35L21 35L21 33ZM6 36L8 36L8 37L6 37L6 36ZM63 44L64 44L64 45L63 45L63 44ZM61 45L62 45L62 46L61 46L61 45ZM75 45L76 45L76 46L75 46L75 45ZM77 45L78 45L78 46L77 46L77 45ZM63 46L64 46L64 48L63 48L63 46ZM74 47L75 47L75 48L74 48L74 47ZM78 47L79 47L79 48L78 48L78 47ZM60 48L61 48L61 49L60 49L60 48ZM62 49L63 49L63 50L62 50L62 49ZM59 50L60 50L60 51L59 51L59 50ZM61 51L62 51L62 52L61 52L61 51ZM73 51L74 51L74 54L73 54L73 51ZM58 52L59 52L59 53L58 53L58 52ZM57 53L58 53L58 54L57 54L57 53ZM60 53L61 53L61 54L60 54L60 53ZM56 54L57 54L57 55L56 55L56 54ZM54 56L55 56L55 57L54 57L54 56ZM58 56L59 56L59 57L58 57L58 56ZM72 56L73 56L73 57L72 57L72 56ZM78 56L79 56L79 60L78 60L78 56ZM53 57L54 57L54 58L53 58L53 57ZM57 57L58 57L58 58L57 58L57 57ZM52 58L53 58L53 59L52 59L52 58ZM56 58L57 58L57 59L56 59L56 58ZM71 58L72 58L72 59L71 59L71 58ZM50 59L51 59L51 60L50 60L50 59ZM55 59L56 59L56 60L55 60L55 59ZM48 60L49 60L49 61L48 61L48 60ZM53 60L54 60L54 61L53 61L53 60ZM44 61L47 61L47 62L45 62L45 63L48 63L48 64L43 64L43 63L42 63L42 62L44 62L44 61ZM52 61L53 61L53 62L52 62L52 61ZM69 61L70 61L70 62L69 62L69 61ZM49 62L51 62L51 63L49 63L49 62ZM68 62L69 62L69 63L68 63L68 62ZM67 63L68 63L68 64L67 64L67 63ZM66 64L67 64L67 65L66 65L66 64ZM65 65L66 65L66 66L65 66L65 65ZM77 66L78 66L78 68L77 68L77 66ZM62 67L63 67L63 68L62 68L62 67ZM61 68L62 68L62 69L61 69L61 68ZM58 70L59 70L59 71L58 71L58 70ZM56 71L57 71L57 72L56 72L56 71ZM63 71L64 71L64 72L63 72L63 71ZM76 71L77 71L77 73L76 73L76 71ZM54 72L55 72L55 73L54 73L54 72ZM61 72L62 72L62 73L61 73L61 72ZM69 72L70 72L70 73L69 73L69 72ZM50 73L52 73L52 74L50 74L50 73ZM59 73L60 73L60 74L59 74L59 73ZM45 74L47 74L47 75L45 75L45 74ZM70 74L71 74L71 75L70 75L70 74ZM56 75L57 75L57 76L56 76L56 75ZM75 75L76 75L76 76L75 76L75 75ZM71 76L72 76L72 77L71 77L71 76ZM44 77L45 77L45 78L44 78L44 77ZM51 77L52 77L52 78L51 78L51 77ZM72 77L74 77L74 78L72 78L72 77ZM46 78L49 78L49 79L46 79L46 78Z"/>
<path fill="#d0e6e8" fill-rule="evenodd" d="M34 3L35 3L35 4L34 4L34 3ZM37 3L38 3L38 4L37 4L37 3ZM49 3L50 3L50 4L49 4L49 3ZM55 3L58 3L58 4L55 4L55 3ZM8 4L9 4L9 5L8 5L8 4ZM11 4L12 4L12 5L11 5L11 4ZM30 4L31 4L31 5L30 5L30 4ZM63 4L66 4L66 5L63 5L63 4ZM28 5L29 5L29 6L28 6L28 5ZM46 5L47 5L47 7L46 7L46 5ZM70 5L71 5L71 6L70 6L70 5ZM12 6L13 6L13 7L12 7L12 6ZM26 6L27 6L27 7L26 7L26 6ZM74 6L75 6L75 7L74 7L74 6ZM24 7L25 7L25 8L24 8L24 7ZM77 7L78 7L78 8L77 8L77 7ZM6 8L7 8L7 10L6 10L6 8ZM34 8L36 8L36 9L34 9L34 8ZM48 8L49 8L49 9L48 9L48 8ZM21 9L22 9L22 10L21 10L21 9ZM30 9L31 9L31 10L30 10L30 9ZM52 9L53 9L53 10L52 10L52 9ZM14 10L15 10L15 11L14 11L14 10ZM18 10L19 10L19 11L18 11L18 10ZM27 10L28 10L28 11L27 11L27 10ZM55 10L56 10L56 11L55 11L55 10ZM79 10L80 10L80 11L79 11L79 10ZM25 11L26 11L26 12L25 12L25 11ZM57 11L58 11L58 12L57 12L57 11ZM76 12L77 12L77 13L76 13L76 12ZM5 13L6 13L6 14L5 14L5 13ZM22 13L23 13L23 14L22 14L22 13ZM60 13L61 13L61 14L60 14L60 13ZM74 13L75 13L75 14L74 14L74 13ZM19 15L20 15L20 16L19 16L19 15ZM72 15L73 15L73 16L72 16L72 15ZM18 16L19 16L19 17L18 17L18 16ZM64 16L65 16L65 17L64 17L64 16ZM90 16L91 16L91 17L90 17L90 16ZM65 17L66 17L66 18L65 18L65 17ZM89 17L90 17L90 18L89 18L89 17ZM38 19L41 19L41 20L38 20L38 19ZM44 19L45 19L45 20L44 20L44 19ZM4 20L5 20L5 23L4 23L4 20ZM34 20L35 20L35 21L34 21L34 20ZM43 20L44 20L44 21L43 21L43 20ZM48 20L49 20L49 21L48 21L48 20ZM31 21L32 21L32 22L31 22L31 21ZM50 21L51 21L51 22L50 22L50 21ZM68 21L69 21L69 22L68 22L68 21ZM73 21L74 21L74 22L73 22L73 21ZM12 22L13 22L13 23L12 23L12 22ZM38 22L39 22L39 23L38 23L38 22ZM44 22L45 22L45 23L44 23L44 22ZM52 22L53 22L53 23L52 23L52 22ZM69 22L70 22L70 23L69 23L69 22ZM28 23L29 23L29 24L28 24L28 23ZM35 23L36 23L36 24L35 24L35 23ZM47 23L48 23L48 24L47 24L47 23ZM54 23L55 23L55 24L54 24L54 23ZM74 23L75 23L75 24L74 24L74 23ZM11 24L12 24L12 25L11 25L11 24ZM27 24L28 24L28 25L27 25L27 24ZM33 24L34 24L34 25L33 25L33 24ZM49 24L50 24L50 25L49 25L49 24ZM55 24L56 24L56 25L55 25L55 24ZM70 24L71 24L71 25L70 25L70 24ZM26 25L27 25L27 26L26 26L26 25ZM31 25L32 25L32 26L31 26L31 25ZM51 25L52 25L52 26L51 26L51 25ZM75 25L76 25L76 26L75 26L75 25ZM10 26L11 26L11 27L10 27L10 26ZM25 26L26 26L26 27L25 27L25 26ZM24 27L25 27L25 28L24 28L24 27ZM54 27L55 27L55 28L54 28L54 27ZM55 28L56 28L56 29L55 29L55 28ZM77 28L78 28L78 29L77 29L77 28ZM3 29L4 29L4 32L3 32L3 29ZM56 29L57 29L57 30L56 30L56 29ZM60 29L61 29L61 30L60 30L60 29ZM9 30L10 30L10 32L9 32L9 30ZM22 30L23 30L23 31L22 31L22 30ZM78 30L79 30L79 31L78 31L78 30ZM25 31L26 31L26 32L25 32L25 31ZM61 31L62 31L62 32L61 32L61 31ZM21 32L22 32L22 33L21 33L21 32ZM58 32L59 32L59 33L58 33L58 32ZM74 32L75 32L75 33L74 33L74 32ZM79 32L80 32L80 33L79 33L79 32ZM24 33L25 33L25 34L24 34L24 33ZM20 34L21 34L21 35L20 35L20 34ZM59 34L60 34L60 35L59 35L59 34ZM80 34L81 34L81 35L80 35L80 34ZM4 35L5 35L5 36L4 36L4 35ZM8 35L9 35L9 36L8 36L8 35ZM23 35L24 35L24 36L23 36L23 35ZM5 36L6 36L6 37L5 37L5 36ZM60 36L61 36L61 37L60 37L60 36ZM63 36L64 36L64 37L63 37L63 36ZM75 36L76 36L76 38L75 38L75 36ZM19 37L20 37L20 39L19 39L19 37ZM22 37L23 37L23 39L22 39L22 37ZM61 40L62 40L62 41L61 41L61 40ZM22 43L23 43L23 44L22 44L22 43ZM61 44L62 44L62 45L61 45L61 44ZM3 46L4 46L4 50L3 50L3 46ZM74 46L75 46L75 47L74 47L74 46ZM78 46L79 46L79 47L78 47L78 46ZM23 47L24 47L24 48L23 48L23 47ZM60 47L61 47L61 48L60 48L60 47ZM8 48L9 48L9 49L8 49L8 48ZM20 48L21 48L21 49L20 49L20 48ZM63 48L64 48L64 49L63 49L63 48ZM24 49L25 49L25 50L24 50L24 49ZM59 49L60 49L60 50L59 50L59 49ZM73 49L74 49L74 51L73 51L73 49ZM62 50L63 50L63 51L62 51L62 50ZM21 51L22 51L22 52L21 52L21 51ZM25 51L26 51L26 52L25 52L25 51ZM58 51L59 51L59 52L58 52L58 51ZM4 52L5 52L5 53L4 53L4 52ZM9 52L10 52L10 54L9 54L9 52ZM61 52L62 52L62 53L61 53L61 52ZM23 54L24 54L24 55L23 55L23 54ZM27 54L28 54L28 55L27 55L27 54ZM60 54L61 54L61 55L60 55L60 54ZM10 55L11 55L11 56L10 56L10 55ZM28 55L29 55L29 56L28 56L28 55ZM55 55L56 55L56 56L55 56L55 55ZM59 55L60 55L60 56L59 56L59 55ZM72 55L73 55L73 56L72 56L72 55ZM29 56L30 56L30 57L29 57L29 56ZM11 57L12 57L12 58L11 58L11 57ZM71 57L72 57L72 58L71 58L71 57ZM7 58L8 58L8 59L7 59L7 58ZM51 58L52 58L52 59L51 59L51 58ZM12 59L13 59L13 60L12 60L12 59ZM49 59L50 59L50 60L49 60L49 59ZM70 59L71 59L71 60L70 60L70 59ZM8 60L9 60L9 61L8 61L8 60ZM29 60L30 60L30 61L29 61L29 60ZM47 60L48 60L48 61L47 61L47 60ZM54 60L55 60L55 61L54 61L54 60ZM78 60L79 60L79 62L78 62L78 60ZM39 61L40 61L40 62L39 62L39 61ZM43 61L44 61L44 62L43 62L43 61ZM14 62L15 62L15 63L14 63L14 62ZM51 62L52 62L52 63L51 63L51 62ZM15 63L16 63L16 64L15 64L15 63ZM35 63L36 63L36 64L35 64L35 63ZM42 63L43 63L43 64L42 64L42 63ZM48 63L49 63L49 64L48 64L48 63ZM10 64L11 64L11 65L10 65L10 64ZM38 64L39 64L39 65L38 65L38 64ZM11 66L12 66L12 68L11 68L11 66ZM63 66L64 66L64 67L63 67L63 66ZM89 66L91 66L91 67L89 67L89 66ZM60 68L61 68L61 69L60 69L60 68ZM77 68L78 68L78 70L77 70L77 68ZM10 69L11 69L11 70L10 70L10 69ZM59 69L60 69L60 70L59 70L59 69ZM57 70L58 70L58 71L57 71L57 70ZM7 71L8 71L8 72L7 72L7 71ZM23 71L24 71L24 72L23 72L23 71ZM55 71L56 71L56 72L55 72L55 71ZM64 71L65 71L65 72L64 72L64 71ZM68 71L69 71L69 72L68 72L68 71ZM25 72L26 72L26 73L25 73L25 72ZM53 72L54 72L54 73L53 73L53 72ZM62 72L63 72L63 73L62 73L62 72ZM4 73L5 73L5 75L4 75L4 73ZM28 73L29 73L29 74L28 74L28 73ZM48 73L50 73L50 74L48 74L48 73ZM60 73L61 73L61 74L60 74L60 73ZM76 73L77 73L77 74L76 74L76 73ZM34 74L36 74L36 75L34 75L34 74ZM44 74L45 74L45 75L44 75L44 74ZM58 74L59 74L59 75L58 75L58 74ZM43 75L44 75L44 77L43 77L43 75ZM6 76L7 76L7 77L6 77L6 76ZM37 76L38 76L38 78L37 78L37 76ZM54 76L55 76L55 77L54 77L54 76ZM75 76L76 76L76 77L75 77L75 76ZM9 77L11 77L11 78L9 78L9 77ZM52 77L53 77L53 78L52 78L52 77ZM71 77L72 77L72 78L71 78L71 77ZM74 77L75 77L75 78L74 78L74 77ZM14 78L17 78L17 79L14 79L14 78ZM45 78L46 78L46 79L45 79L45 78ZM49 78L50 78L50 79L49 79L49 78ZM24 79L27 79L27 80L24 80L24 79ZM34 79L35 79L35 80L34 80L34 79Z"/>
<path fill="#79bce1" fill-rule="evenodd" d="M50 3L55 3L55 4L50 4L50 3ZM47 4L48 4L48 5L47 5L47 4ZM60 4L63 4L63 5L60 5L60 4ZM68 5L70 5L70 6L68 6L68 5ZM73 6L74 6L74 7L73 7L73 6ZM47 7L48 7L48 8L47 8L47 7ZM76 7L77 7L77 8L76 8L76 7ZM49 8L51 8L51 9L49 9L49 8ZM78 8L79 8L79 9L78 9L78 8ZM53 9L54 9L54 10L53 10L53 9ZM56 10L57 10L57 11L56 11L56 10ZM78 11L79 11L79 12L78 12L78 11ZM59 12L60 12L60 13L59 13L59 12ZM75 12L76 12L76 13L75 13L75 12ZM61 13L62 13L62 14L61 14L61 13ZM62 14L63 14L63 15L62 15L62 14ZM63 15L64 15L64 16L63 16L63 15ZM66 18L67 18L67 19L66 19L66 18ZM67 19L68 19L68 20L67 20L67 19ZM72 19L73 19L73 20L72 20L72 19ZM46 20L48 20L48 21L46 21L46 20ZM43 21L44 21L44 22L43 22L43 21ZM49 21L50 21L50 22L49 22L49 21ZM45 22L47 22L47 23L45 23L45 22ZM51 22L52 22L52 23L51 23L51 22ZM73 22L74 22L74 23L73 23L73 22ZM48 23L49 23L49 24L48 24L48 23ZM53 23L54 23L54 24L53 24L53 23ZM70 23L71 23L71 24L70 24L70 23ZM50 24L51 24L51 25L50 25L50 24ZM54 24L55 24L55 25L54 25L54 24ZM52 25L53 25L53 26L52 26L52 25ZM56 25L57 25L57 26L56 26L56 25ZM71 25L72 25L72 26L71 26L71 25ZM53 26L54 26L54 27L53 27L53 26ZM57 26L58 26L58 27L57 27L57 26ZM58 27L59 27L59 28L58 28L58 27ZM72 27L73 27L73 28L72 28L72 27ZM76 27L77 27L77 28L76 28L76 27ZM59 28L60 28L60 29L59 29L59 28ZM73 29L74 29L74 30L73 30L73 29ZM77 29L78 29L78 30L77 30L77 29ZM57 30L58 30L58 31L57 31L57 30ZM60 30L61 30L61 31L60 31L60 30ZM58 31L59 31L59 32L58 32L58 31ZM74 31L75 31L75 32L74 32L74 31ZM59 33L60 33L60 34L59 34L59 33ZM62 33L63 33L63 35L62 35L62 33ZM75 34L76 34L76 36L75 36L75 34ZM60 35L61 35L61 36L60 36L60 35ZM80 35L81 35L81 38L80 38L80 35ZM63 37L64 37L64 39L63 39L63 37ZM61 38L62 38L62 40L61 40L61 38ZM76 38L77 38L77 39L76 39L76 38ZM79 38L80 38L80 39L79 39L79 38ZM20 42L22 42L22 43L20 43L20 42ZM5 44L7 44L7 45L5 45L5 44ZM22 44L23 44L23 47L22 47L22 44ZM4 45L5 45L5 46L4 46L4 45ZM7 45L8 45L8 46L7 46L7 45ZM20 45L21 45L21 48L20 48L20 45ZM23 48L24 48L24 49L23 49L23 48ZM8 49L9 49L9 51L8 51L8 49ZM21 49L22 49L22 51L21 51L21 49ZM24 50L25 50L25 51L24 51L24 50ZM4 51L5 51L5 52L4 52L4 51ZM22 52L23 52L23 53L22 53L22 52ZM25 52L26 52L26 53L25 53L25 52ZM23 53L24 53L24 54L23 54L23 53ZM26 53L27 53L27 54L26 54L26 53ZM5 54L6 54L6 55L5 55L5 54ZM9 54L10 54L10 55L9 55L9 54ZM24 55L25 55L25 56L24 56L24 55ZM27 55L28 55L28 56L27 56L27 55ZM6 56L7 56L7 57L6 57L6 56ZM10 56L11 56L11 57L10 57L10 56ZM25 56L26 56L26 57L25 57L25 56ZM26 57L27 57L27 58L26 58L26 57ZM30 57L31 57L31 58L30 58L30 57ZM11 58L12 58L12 59L11 59L11 58ZM27 58L28 58L28 59L27 59L27 58ZM31 58L32 58L32 59L31 59L31 58ZM8 59L9 59L9 60L8 60L8 59ZM28 59L29 59L29 60L28 60L28 59ZM33 59L34 59L34 60L33 60L33 59ZM30 60L31 60L31 61L30 61L30 60ZM35 60L36 60L36 61L35 61L35 60ZM9 61L10 61L10 62L9 62L9 61ZM13 61L14 61L14 62L13 62L13 61ZM31 61L32 61L32 62L31 62L31 61ZM37 61L39 61L39 62L37 62L37 61ZM33 62L34 62L34 63L33 63L33 62ZM39 62L40 62L40 64L39 64L39 62ZM10 63L11 63L11 64L10 64L10 63ZM36 63L37 63L37 64L36 64L36 63ZM11 65L12 65L12 66L11 66L11 65ZM16 65L17 65L17 66L16 66L16 65ZM17 66L18 66L18 67L17 67L17 66ZM18 67L19 67L19 68L18 68L18 67ZM11 68L12 68L12 69L11 69L11 68ZM19 68L20 68L20 69L19 69L19 68ZM20 69L21 69L21 70L20 70L20 69ZM9 70L10 70L10 71L9 71L9 70ZM21 70L22 70L22 71L21 71L21 70ZM5 72L6 72L6 73L5 73L5 72ZM27 73L28 73L28 74L27 74L27 73ZM32 74L34 74L34 75L32 75L32 74ZM5 75L6 75L6 76L5 76L5 75ZM36 75L37 75L37 76L36 76L36 75ZM7 76L8 76L8 77L7 77L7 76ZM11 77L13 77L13 78L11 78L11 77ZM17 78L20 78L20 79L17 79L17 78ZM36 78L37 78L37 79L36 79L36 78ZM27 79L34 79L34 80L27 80L27 79Z"/>
<path fill="#2395d2" fill-rule="evenodd" d="M48 4L60 4L60 12L58 12L58 11L57 11L57 10L54 10L54 9L51 9L51 8L48 8L48 7L47 7L47 5L48 5L48 4ZM66 5L68 5L68 6L66 6L66 5ZM72 6L73 6L73 7L72 7L72 6ZM75 7L76 7L76 8L75 8L75 7ZM77 11L78 11L78 12L77 12L77 11ZM60 12L61 12L61 13L60 13L60 12ZM73 13L74 13L74 14L73 14L73 13ZM72 14L73 14L73 15L72 15L72 14ZM71 16L72 16L72 18L71 18L71 16ZM44 20L46 20L46 21L49 21L49 22L51 22L51 23L53 23L53 24L54 24L54 25L56 25L56 26L57 26L57 27L58 27L58 28L59 28L59 29L60 29L60 31L61 31L61 32L62 32L62 35L63 35L63 39L64 39L64 41L62 41L62 38L61 38L61 35L60 35L60 33L59 33L59 31L58 31L58 30L57 30L57 29L56 29L56 28L55 28L55 27L54 27L54 26L53 26L53 25L51 25L51 24L49 24L49 23L47 23L47 22L44 22L44 20ZM68 20L69 20L69 21L68 21L68 20ZM72 20L73 20L73 21L72 21L72 20ZM69 21L70 21L70 22L69 22L69 21ZM74 24L75 24L75 25L74 25L74 24ZM72 26L73 26L73 27L72 27L72 26ZM75 26L76 26L76 27L75 27L75 26ZM73 28L74 28L74 29L73 29L73 28ZM78 31L79 31L79 32L78 32L78 31ZM79 33L80 33L80 34L79 34L79 33ZM78 38L79 38L79 39L78 39L78 38ZM20 43L22 43L22 47L23 47L23 49L24 49L24 51L25 51L25 53L26 53L26 54L27 54L27 56L29 56L29 57L30 57L30 58L31 58L31 59L33 59L33 60L35 60L35 61L37 61L37 62L39 62L39 64L37 64L37 63L34 63L34 62L32 62L32 61L31 61L31 60L29 60L29 59L28 59L28 58L27 58L27 57L26 57L26 56L25 56L25 55L24 55L24 53L23 53L23 52L22 52L22 49L21 49L21 45L20 45L20 43ZM5 45L7 45L7 46L8 46L8 51L9 51L9 55L10 55L10 57L11 57L11 59L12 59L12 60L13 60L13 62L14 62L14 63L15 63L15 64L16 64L16 66L17 66L17 78L13 78L13 77L8 77L8 76L6 76L6 75L5 75L5 73L6 73L6 72L8 72L8 71L10 71L10 70L11 70L11 69L12 69L12 65L11 65L11 63L10 63L10 61L9 61L9 59L8 59L8 58L7 58L7 56L6 56L6 54L5 54L5 51L4 51L4 46L5 46L5 45ZM22 71L23 71L23 72L22 72L22 71ZM24 72L25 72L25 73L24 73L24 72ZM26 73L27 73L27 74L26 74L26 73ZM30 74L32 74L32 75L30 75L30 74ZM20 78L23 78L23 79L20 79L20 78Z"/>
<path fill="#77ac42" fill-rule="evenodd" d="M32 4L39 4L39 7L38 7L38 8L32 8L32 9L29 9L29 10L26 10L26 11L25 11L25 12L23 12L23 13L21 13L21 14L20 14L20 15L19 15L19 16L17 16L17 17L16 17L16 18L15 18L15 19L14 19L14 20L13 20L13 22L12 22L12 23L11 23L11 25L10 25L10 28L9 28L9 33L8 33L8 36L5 36L5 33L4 33L4 27L5 27L5 18L6 18L6 12L7 12L7 8L8 8L8 5L11 5L11 6L12 6L12 8L13 8L13 10L14 10L14 11L16 11L16 12L17 12L17 11L20 11L20 10L22 10L22 9L24 9L24 8L26 8L26 7L27 7L27 6L30 6L30 5L32 5L32 4ZM36 20L41 20L41 21L40 21L40 22L36 22L36 23L34 23L34 24L32 24L32 25L30 25L30 26L29 26L29 27L28 27L28 28L27 28L27 29L26 29L26 30L25 30L25 31L24 31L24 33L23 33L23 35L22 35L22 32L23 32L23 30L24 30L24 29L25 29L25 27L26 27L26 26L27 26L27 25L28 25L28 24L30 24L30 23L31 23L31 22L33 22L33 21L36 21L36 20ZM62 44L63 44L63 45L64 45L64 46L63 46L63 49L62 49L62 51L61 51L61 53L60 53L60 55L59 55L59 56L58 56L58 57L57 57L57 58L56 58L56 59L55 59L55 60L53 60L53 61L52 61L52 62L49 62L49 63L45 63L45 62L47 62L47 61L49 61L49 60L51 60L51 59L53 59L53 58L54 58L54 57L55 57L55 56L56 56L56 55L57 55L57 54L58 54L58 53L59 53L59 51L60 51L60 49L61 49L61 46L62 46L62 44ZM76 45L77 45L77 46L78 46L78 48L79 48L79 56L78 56L78 66L77 66L77 71L76 71L76 75L75 75L75 77L72 77L72 76L71 76L71 74L70 74L70 72L69 72L69 71L63 71L63 72L61 72L61 73L59 73L59 74L58 74L58 75L56 75L56 76L54 76L54 77L51 77L51 78L45 78L45 77L44 77L44 75L47 75L47 74L52 74L52 73L55 73L55 72L57 72L57 71L59 71L59 70L60 70L60 69L62 69L62 68L63 68L63 67L64 67L64 66L66 66L66 65L67 65L67 64L68 64L68 63L69 63L69 62L70 62L70 60L71 60L71 59L72 59L72 57L73 57L73 54L74 54L74 48L75 48L75 46L76 46L76 45Z"/>
</svg>
