<svg xmlns="http://www.w3.org/2000/svg" viewBox="0 0 439 115" width="439" height="115" shape-rendering="geometricPrecision">
<path fill="#1a86c8" fill-rule="evenodd" d="M60 5L66 5L66 6L72 6L72 7L75 7L75 8L78 8L78 9L79 9L79 11L77 11L77 12L75 12L75 13L73 13L73 14L72 14L72 16L71 16L71 18L72 18L72 21L73 21L73 23L74 23L74 25L75 25L75 27L76 27L76 28L77 28L77 30L78 30L78 32L79 32L79 34L80 34L80 38L78 38L78 39L77 39L77 38L76 38L76 34L75 34L75 31L74 31L74 28L73 28L73 26L72 26L72 25L71 25L71 23L70 23L70 21L69 21L69 20L68 20L68 19L67 19L67 18L66 18L66 17L65 17L65 16L64 16L64 15L63 15L63 14L62 14L62 13L61 13L61 12L60 12L60 5ZM232 15L234 15L234 16L240 16L240 17L242 17L242 18L243 18L243 21L242 21L242 22L239 22L239 21L229 21L229 16L232 16L232 15ZM261 30L268 30L268 31L270 31L270 32L272 32L272 33L273 33L273 34L274 34L274 36L275 36L275 40L276 40L276 48L275 48L275 49L273 49L273 50L268 50L268 51L260 51L260 46L268 46L268 45L269 45L269 40L268 40L268 37L267 37L267 36L266 36L266 35L261 35L261 36L260 36L260 31L261 31L261 30ZM291 30L297 30L297 31L300 31L300 32L302 32L302 31L310 31L310 36L305 36L305 38L306 38L306 41L307 41L307 45L306 45L306 49L305 49L305 51L304 51L304 52L303 52L303 53L301 53L301 54L299 54L299 55L291 55L291 50L292 50L292 51L297 51L297 50L298 50L298 49L299 49L299 47L300 47L300 40L299 40L299 37L298 37L298 36L297 36L297 35L295 35L295 34L292 34L292 35L291 35L291 30ZM363 30L367 30L367 31L369 31L369 36L368 36L368 37L365 37L365 36L362 36L362 37L359 37L359 38L358 38L358 32L360 32L360 31L363 31L363 30ZM384 30L391 30L391 31L394 31L394 32L396 32L396 33L397 33L397 34L398 34L398 35L399 35L399 36L400 36L400 38L401 38L401 42L402 42L402 55L401 55L401 58L400 58L400 60L399 60L399 62L398 62L398 63L397 63L397 64L396 64L396 65L394 65L394 66L392 66L392 67L384 67L384 62L387 62L387 63L388 63L388 62L391 62L391 61L392 61L392 59L393 59L393 57L394 57L394 51L395 51L395 45L394 45L394 40L393 40L393 38L392 38L392 37L391 37L391 36L390 36L390 35L385 35L385 36L384 36L384 30ZM416 30L423 30L423 31L426 31L426 32L428 32L428 36L427 36L427 37L426 37L426 36L423 36L423 35L417 35L417 36L416 36L416 30ZM336 31L342 31L342 64L341 64L341 65L339 65L339 66L338 66L338 65L336 65L336 64L335 64L335 65L333 65L333 66L330 66L330 67L326 67L326 62L330 62L330 61L333 61L333 60L334 60L334 34L335 34L335 32L336 32L336 31ZM229 33L230 33L230 34L231 34L231 35L232 35L232 36L233 36L233 37L234 37L234 38L235 38L235 39L236 39L236 40L237 40L237 41L239 41L239 43L240 43L240 44L241 44L241 45L242 45L242 46L243 46L243 48L244 48L244 52L245 52L245 56L244 56L244 60L243 60L243 61L242 61L242 63L241 63L241 64L240 64L240 65L238 65L238 66L236 66L236 67L229 67L229 62L232 62L232 61L234 61L234 60L235 60L235 59L236 59L236 57L237 57L237 52L236 52L236 49L235 49L235 48L234 48L234 47L233 47L233 46L232 46L232 44L231 44L231 43L230 43L230 42L229 42L229 33ZM416 42L417 42L417 43L418 43L418 44L419 44L419 45L421 45L421 46L422 46L422 47L423 47L423 48L425 48L425 49L426 49L426 50L427 50L427 51L428 51L428 53L429 53L429 56L430 56L430 58L429 58L429 61L428 61L428 63L427 63L427 64L426 64L426 65L424 65L424 66L421 66L421 67L416 67L416 62L420 62L420 61L421 61L421 60L422 60L422 55L421 55L421 54L420 54L420 53L419 53L419 52L418 52L418 51L416 51L416 42ZM272 60L274 60L274 62L275 62L275 63L274 63L274 65L272 65L272 66L270 66L270 67L260 67L260 61L263 61L263 62L268 62L268 61L272 61L272 60ZM291 60L297 60L297 61L304 61L304 62L306 62L306 63L308 63L308 64L309 64L309 66L310 66L310 72L309 72L309 74L308 74L308 76L307 76L307 77L306 77L306 78L305 78L305 79L304 79L304 80L303 80L303 81L301 81L301 82L300 82L300 83L297 83L297 84L295 84L295 85L291 85L291 81L294 81L294 80L296 80L296 79L298 79L298 78L299 78L299 77L300 77L300 76L301 76L301 75L302 75L302 73L303 73L303 68L302 68L302 67L301 67L301 66L293 66L293 65L291 65L291 60ZM17 67L18 67L18 68L19 68L19 69L20 69L20 70L21 70L21 71L22 71L22 72L24 72L24 73L26 73L26 74L30 74L30 75L36 75L36 76L37 76L37 78L36 78L36 79L23 79L23 78L17 78L17 67ZM291 71L292 71L292 73L291 73L291 71ZM318 84L319 84L319 86L318 86L318 84ZM326 84L328 84L328 85L327 85L327 86L326 86L326 84ZM311 85L314 85L314 86L311 86L311 85ZM325 89L327 89L327 90L325 90L325 89ZM336 89L337 89L337 90L336 90L336 89ZM353 89L355 89L355 90L353 90L353 89ZM371 89L372 89L372 90L371 90L371 89ZM385 89L387 89L387 90L385 90L385 89ZM394 89L396 89L396 90L394 90L394 89ZM403 89L405 89L405 90L403 90L403 89ZM425 89L426 89L426 90L427 90L427 91L424 91L424 90L425 90L425 89ZM432 89L434 89L434 90L432 90L432 89ZM318 90L319 90L319 100L318 100L318 90ZM327 90L329 90L329 95L325 95L325 94L328 94L328 91L327 91L327 90ZM337 90L339 90L339 92L340 92L340 100L338 100L338 91L337 91L337 90ZM345 90L348 90L348 91L345 91L345 90ZM355 90L357 90L357 95L353 95L353 94L356 94L356 91L355 91L355 90ZM362 90L365 90L365 91L362 91L362 90ZM372 90L374 90L374 91L375 91L375 95L370 95L370 94L373 94L373 91L372 91L372 90ZM387 90L388 90L388 91L387 91L387 90ZM396 90L397 90L397 91L398 91L398 95L394 95L394 94L396 94L396 90ZM405 90L408 90L408 91L407 91L407 95L406 95L406 91L405 91L405 90ZM417 90L418 90L418 100L417 100L417 99L416 99L416 98L417 98L417 90ZM434 90L436 90L436 92L437 92L437 97L436 97L436 99L435 99L435 100L432 100L432 99L434 99L434 98L435 98L435 91L434 91L434 90ZM311 91L312 91L312 92L313 92L313 93L314 93L314 95L315 95L315 98L314 98L314 99L313 99L313 100L311 100L311 99L312 99L312 98L313 98L313 95L312 95L312 93L311 93L311 91ZM385 94L386 94L386 95L385 95L385 94ZM386 95L388 95L388 99L387 99L387 100L385 100L385 99L386 99L386 98L387 98L387 97L386 97L386 95ZM405 95L406 95L406 96L405 96L405 95ZM362 98L363 98L363 99L365 99L365 100L362 100L362 98ZM325 99L329 99L329 100L325 100L325 99ZM345 99L348 99L348 100L345 100L345 99ZM353 99L357 99L357 100L353 100L353 99ZM370 99L374 99L374 100L370 100L370 99ZM394 99L397 99L397 100L394 100L394 99ZM403 99L408 99L408 103L407 103L407 100L403 100L403 99ZM414 99L416 99L416 100L414 100L414 99ZM406 103L407 103L407 104L406 104L406 103ZM405 104L406 104L406 105L405 105L405 104ZM403 105L404 105L404 106L403 106L403 105Z"></path>
<path fill="#a7ca82" fill-rule="evenodd" d="M35 3L37 3L37 4L35 4L35 3ZM9 4L11 4L11 5L9 5L9 4ZM31 4L32 4L32 5L31 5L31 4ZM11 5L12 5L12 6L11 6L11 5ZM29 5L30 5L30 6L29 6L29 5ZM39 5L40 5L40 7L39 7L39 5ZM7 6L8 6L8 8L7 8L7 6ZM12 7L13 7L13 8L12 8L12 7ZM25 7L26 7L26 8L25 8L25 7ZM38 7L39 7L39 8L38 8L38 7ZM23 8L24 8L24 9L23 9L23 8ZM32 8L34 8L34 9L32 9L32 8ZM13 9L14 9L14 10L13 10L13 9ZM29 9L30 9L30 10L29 10L29 9ZM6 10L7 10L7 12L6 12L6 10ZM19 10L20 10L20 11L19 11L19 10ZM26 10L27 10L27 11L26 11L26 10ZM16 11L17 11L17 12L16 12L16 11ZM23 12L24 12L24 13L23 13L23 12ZM21 13L22 13L22 14L21 14L21 13ZM5 14L6 14L6 18L5 18L5 14ZM20 14L21 14L21 15L20 15L20 14ZM132 15L144 15L144 16L132 16L132 15ZM178 15L180 15L180 16L178 16L178 15ZM186 15L188 15L188 16L186 16L186 15ZM17 16L18 16L18 17L17 17L17 16ZM91 16L95 16L95 17L91 17L91 16ZM106 16L108 16L108 17L106 17L106 16ZM147 16L149 16L149 17L147 17L147 16ZM174 16L175 16L175 17L174 17L174 16ZM190 16L191 16L191 17L190 17L190 16ZM16 17L17 17L17 18L16 18L16 17ZM111 17L112 17L112 18L111 18L111 17ZM150 17L151 17L151 18L150 18L150 17ZM172 17L173 17L173 18L172 18L172 17ZM192 17L193 17L193 18L192 18L192 17ZM15 18L16 18L16 19L15 19L15 18ZM89 18L90 18L90 66L89 66L89 18ZM113 18L114 18L114 19L113 19L113 18ZM170 18L171 18L171 19L170 19L170 18ZM193 18L194 18L194 19L193 19L193 18ZM14 19L15 19L15 20L14 20L14 19ZM115 19L116 19L116 20L115 20L115 19ZM13 20L14 20L14 21L13 21L13 20ZM35 20L36 20L36 21L35 21L35 20ZM116 20L117 20L117 21L116 21L116 20ZM32 21L33 21L33 22L32 22L32 21ZM40 21L41 21L41 22L40 22L40 21ZM138 21L139 21L139 22L138 22L138 21ZM141 21L143 21L143 22L141 22L141 21ZM167 21L168 21L168 22L167 22L167 21ZM180 21L181 21L181 22L180 22L180 21ZM186 21L188 21L188 22L186 22L186 21ZM193 21L194 21L194 22L193 22L193 21ZM30 22L31 22L31 23L30 23L30 22ZM36 22L38 22L38 23L36 23L36 22ZM105 22L107 22L107 23L105 23L105 22ZM118 22L119 22L119 23L118 23L118 22ZM145 22L146 22L146 23L145 23L145 22ZM155 22L156 22L156 23L155 23L155 22ZM166 22L167 22L167 23L166 23L166 22ZM177 22L178 22L178 23L177 23L177 22ZM190 22L191 22L191 23L190 23L190 22ZM4 23L5 23L5 27L4 27L4 23ZM11 23L12 23L12 24L11 24L11 23ZM29 23L30 23L30 24L29 24L29 23ZM34 23L35 23L35 24L34 24L34 23ZM108 23L109 23L109 24L108 24L108 23ZM119 23L120 23L120 24L119 24L119 23ZM146 23L147 23L147 24L146 24L146 23ZM32 24L33 24L33 25L32 25L32 24ZM165 24L166 24L166 25L165 25L165 24ZM174 24L175 24L175 25L174 25L174 24ZM10 25L11 25L11 26L10 26L10 25ZM30 25L31 25L31 26L30 26L30 25ZM120 25L121 25L121 26L120 26L120 25ZM156 25L157 25L157 26L156 26L156 25ZM29 26L30 26L30 27L29 27L29 26ZM111 26L112 26L112 27L111 27L111 26ZM28 27L29 27L29 28L28 28L28 27ZM121 27L122 27L122 28L121 28L121 27ZM148 27L149 27L149 30L148 30L148 27ZM172 27L173 27L173 28L172 28L172 27ZM9 28L10 28L10 30L9 30L9 28ZM24 28L25 28L25 29L24 29L24 28ZM27 28L28 28L28 29L27 29L27 28ZM163 28L164 28L164 29L163 29L163 28ZM23 29L24 29L24 30L23 30L23 29ZM26 29L27 29L27 30L26 30L26 29ZM171 29L172 29L172 30L171 30L171 29ZM25 30L26 30L26 31L25 31L25 30ZM113 30L114 30L114 31L113 31L113 30ZM22 31L23 31L23 32L22 32L22 31ZM24 31L25 31L25 33L24 33L24 31ZM122 31L123 31L123 32L122 32L122 31ZM162 31L163 31L163 32L162 32L162 31ZM148 32L149 32L149 35L148 35L148 32ZM170 32L171 32L171 34L170 34L170 32ZM4 33L5 33L5 35L4 35L4 33ZM8 33L9 33L9 35L8 35L8 33ZM21 33L22 33L22 35L23 35L23 33L24 33L24 35L23 35L23 37L22 37L22 40L20 40L20 35L21 35L21 33ZM114 35L115 35L115 44L114 44L114 35ZM161 35L162 35L162 38L161 38L161 35ZM6 36L8 36L8 37L6 37L6 36ZM156 36L157 36L157 37L156 37L156 36ZM147 37L148 37L148 38L147 38L147 37ZM169 38L170 38L170 46L169 46L169 38ZM183 38L184 38L184 41L183 41L183 38ZM195 39L196 39L196 44L195 44L195 39ZM145 40L146 40L146 41L145 41L145 40ZM154 40L155 40L155 41L154 41L154 40ZM143 41L144 41L144 42L143 42L143 41ZM184 42L185 42L185 43L184 43L184 42ZM185 43L186 43L186 44L185 44L185 43ZM63 44L64 44L64 45L63 45L63 44ZM150 44L151 44L151 45L150 45L150 44ZM61 45L62 45L62 46L61 46L61 45ZM75 45L76 45L76 46L75 46L75 45ZM77 45L78 45L78 46L77 46L77 45ZM140 45L141 45L141 46L140 46L140 45ZM147 45L148 45L148 46L147 46L147 45ZM63 46L64 46L64 48L63 48L63 46ZM143 46L145 46L145 47L143 47L143 46ZM161 46L162 46L162 50L161 50L161 46ZM74 47L75 47L75 48L74 48L74 47ZM78 47L79 47L79 48L78 48L78 47ZM122 47L123 47L123 50L122 50L122 47ZM60 48L61 48L61 49L60 49L60 48ZM62 49L63 49L63 50L62 50L62 49ZM113 49L114 49L114 50L113 50L113 49ZM59 50L60 50L60 51L59 51L59 50ZM170 50L171 50L171 52L170 52L170 50ZM61 51L62 51L62 52L61 52L61 51ZM73 51L74 51L74 54L73 54L73 51ZM58 52L59 52L59 53L58 53L58 52ZM121 52L122 52L122 53L121 53L121 52ZM162 52L163 52L163 54L162 54L162 52ZM57 53L58 53L58 54L57 54L57 53ZM60 53L61 53L61 54L60 54L60 53ZM112 53L113 53L113 54L112 54L112 53ZM56 54L57 54L57 55L56 55L56 54ZM171 54L172 54L172 55L171 55L171 54ZM111 55L112 55L112 56L111 56L111 55ZM120 55L121 55L121 56L120 56L120 55ZM54 56L55 56L55 57L54 57L54 56ZM58 56L59 56L59 57L58 57L58 56ZM72 56L73 56L73 57L72 57L72 56ZM78 56L79 56L79 60L78 60L78 56ZM163 56L164 56L164 57L163 57L163 56ZM172 56L173 56L173 57L172 57L172 56ZM53 57L54 57L54 58L53 58L53 57ZM57 57L58 57L58 58L57 58L57 57ZM119 57L120 57L120 58L119 58L119 57ZM173 57L174 57L174 58L173 58L173 57ZM52 58L53 58L53 59L52 59L52 58ZM56 58L57 58L57 59L56 59L56 58ZM71 58L72 58L72 59L71 59L71 58ZM164 58L165 58L165 59L164 59L164 58ZM174 58L175 58L175 59L174 59L174 58ZM50 59L51 59L51 60L50 60L50 59ZM55 59L56 59L56 60L55 60L55 59ZM107 59L108 59L108 60L107 60L107 59ZM175 59L176 59L176 60L175 60L175 59ZM48 60L49 60L49 61L48 61L48 60ZM53 60L54 60L54 61L53 61L53 60ZM97 60L98 60L98 61L97 61L97 60ZM105 60L106 60L106 61L105 61L105 60ZM117 60L118 60L118 61L117 61L117 60ZM177 60L178 60L178 61L177 61L177 60ZM187 60L188 60L188 61L187 61L187 60ZM44 61L47 61L47 62L45 62L45 63L48 63L48 64L43 64L43 63L42 63L42 62L44 62L44 61ZM52 61L53 61L53 62L52 62L52 61ZM69 61L70 61L70 62L69 62L69 61ZM116 61L117 61L117 62L116 62L116 61ZM166 61L167 61L167 62L166 62L166 61ZM179 61L182 61L182 62L179 62L179 61ZM183 61L186 61L186 62L183 62L183 61ZM49 62L51 62L51 63L49 63L49 62ZM68 62L69 62L69 63L68 63L68 62ZM115 62L116 62L116 63L115 63L115 62ZM167 62L168 62L168 63L167 63L167 62ZM67 63L68 63L68 64L67 64L67 63ZM168 63L169 63L169 64L168 64L168 63ZM195 63L196 63L196 64L195 64L195 63ZM66 64L67 64L67 65L66 65L66 64ZM112 64L113 64L113 65L112 65L112 64ZM194 64L195 64L195 65L194 65L194 64ZM65 65L66 65L66 66L65 66L65 65ZM109 65L111 65L111 66L109 66L109 65ZM137 65L138 65L138 66L137 66L137 65ZM171 65L172 65L172 66L171 66L171 65ZM192 65L193 65L193 66L192 66L192 65ZM77 66L78 66L78 68L77 68L77 66ZM91 66L97 66L97 67L91 67L91 66ZM105 66L107 66L107 67L105 67L105 66ZM130 66L136 66L136 67L130 67L130 66ZM174 66L175 66L175 67L174 67L174 66ZM190 66L191 66L191 67L190 67L190 66ZM62 67L63 67L63 68L62 68L62 67ZM177 67L187 67L187 68L177 68L177 67ZM61 68L62 68L62 69L61 69L61 68ZM58 70L59 70L59 71L58 71L58 70ZM56 71L57 71L57 72L56 72L56 71ZM63 71L64 71L64 72L63 72L63 71ZM76 71L77 71L77 73L76 73L76 71ZM54 72L55 72L55 73L54 73L54 72ZM61 72L62 72L62 73L61 73L61 72ZM69 72L70 72L70 73L69 73L69 72ZM50 73L52 73L52 74L50 74L50 73ZM59 73L60 73L60 74L59 74L59 73ZM45 74L47 74L47 75L45 75L45 74ZM70 74L71 74L71 75L70 75L70 74ZM56 75L57 75L57 76L56 76L56 75ZM75 75L76 75L76 76L75 76L75 75ZM71 76L72 76L72 77L71 77L71 76ZM44 77L45 77L45 78L44 78L44 77ZM51 77L52 77L52 78L51 78L51 77ZM72 77L74 77L74 78L72 78L72 77ZM46 78L49 78L49 79L46 79L46 78Z"></path>
<path fill="#d0e6e8" fill-rule="evenodd" d="M34 3L35 3L35 4L34 4L34 3ZM37 3L38 3L38 4L37 4L37 3ZM49 3L50 3L50 4L49 4L49 3ZM55 3L58 3L58 4L55 4L55 3ZM8 4L9 4L9 5L8 5L8 4ZM11 4L12 4L12 5L11 5L11 4ZM30 4L31 4L31 5L30 5L30 4ZM63 4L66 4L66 5L63 5L63 4ZM28 5L29 5L29 6L28 6L28 5ZM46 5L47 5L47 7L46 7L46 5ZM70 5L71 5L71 6L70 6L70 5ZM12 6L13 6L13 7L12 7L12 6ZM26 6L27 6L27 7L26 7L26 6ZM74 6L75 6L75 7L74 7L74 6ZM24 7L25 7L25 8L24 8L24 7ZM77 7L78 7L78 8L77 8L77 7ZM6 8L7 8L7 10L6 10L6 8ZM34 8L36 8L36 9L34 9L34 8ZM48 8L49 8L49 9L48 9L48 8ZM21 9L22 9L22 10L21 10L21 9ZM30 9L31 9L31 10L30 10L30 9ZM52 9L53 9L53 10L52 10L52 9ZM14 10L15 10L15 11L14 11L14 10ZM18 10L19 10L19 11L18 11L18 10ZM27 10L28 10L28 11L27 11L27 10ZM55 10L56 10L56 11L55 11L55 10ZM79 10L80 10L80 11L79 11L79 10ZM25 11L26 11L26 12L25 12L25 11ZM57 11L58 11L58 12L57 12L57 11ZM76 12L77 12L77 13L76 13L76 12ZM5 13L6 13L6 14L5 14L5 13ZM22 13L23 13L23 14L22 14L22 13ZM60 13L61 13L61 14L60 14L60 13ZM74 13L75 13L75 14L74 14L74 13ZM19 15L20 15L20 16L19 16L19 15ZM72 15L73 15L73 16L72 16L72 15ZM130 15L132 15L132 16L130 16L130 15ZM144 15L146 15L146 16L144 16L144 15ZM176 15L178 15L178 16L176 16L176 15ZM188 15L189 15L189 16L188 16L188 15ZM227 15L228 15L228 16L227 16L227 15ZM238 15L240 15L240 16L238 16L238 15ZM18 16L19 16L19 17L18 17L18 16ZM64 16L65 16L65 17L64 17L64 16ZM90 16L91 16L91 17L90 17L90 16ZM108 16L110 16L110 17L108 17L108 16ZM129 16L130 16L130 27L129 27L129 16ZM149 16L150 16L150 17L149 17L149 16ZM173 16L174 16L174 17L173 17L173 16ZM191 16L192 16L192 17L191 17L191 16ZM241 16L242 16L242 17L241 17L241 16ZM65 17L66 17L66 18L65 18L65 17ZM89 17L90 17L90 18L89 18L89 17ZM151 17L152 17L152 18L151 18L151 17ZM171 17L172 17L172 18L171 18L171 17ZM223 17L224 17L224 18L223 18L223 17ZM243 17L244 17L244 18L243 18L243 17ZM114 18L115 18L115 19L114 19L114 18ZM152 18L153 18L153 19L152 19L152 18ZM38 19L41 19L41 20L38 20L38 19ZM44 19L45 19L45 20L44 20L44 19ZM153 19L154 19L154 20L153 20L153 19ZM168 19L169 19L169 20L168 20L168 19ZM194 19L195 19L195 20L194 20L194 19ZM4 20L5 20L5 23L4 23L4 20ZM34 20L35 20L35 21L34 21L34 20ZM43 20L44 20L44 21L43 21L43 20ZM48 20L49 20L49 21L48 21L48 20ZM154 20L155 20L155 21L154 21L154 20ZM167 20L168 20L168 21L167 21L167 20ZM220 20L221 20L221 21L220 21L220 20ZM243 20L244 20L244 21L243 21L243 20ZM31 21L32 21L32 22L31 22L31 21ZM50 21L51 21L51 22L50 22L50 21ZM68 21L69 21L69 22L68 22L68 21ZM73 21L74 21L74 22L73 22L73 21ZM139 21L141 21L141 22L139 22L139 21ZM181 21L186 21L186 22L181 22L181 21ZM231 21L232 21L232 22L231 22L231 21ZM236 21L237 21L237 22L236 22L236 21ZM12 22L13 22L13 23L12 23L12 22ZM38 22L39 22L39 23L38 23L38 22ZM44 22L45 22L45 23L44 23L44 22ZM52 22L53 22L53 23L52 23L52 22ZM69 22L70 22L70 23L69 23L69 22ZM97 22L98 22L98 60L97 60L97 22ZM103 22L105 22L105 23L103 23L103 22ZM144 22L145 22L145 23L144 23L144 22ZM178 22L179 22L179 23L178 23L178 22ZM189 22L190 22L190 23L189 23L189 22ZM219 22L220 22L220 23L219 23L219 22ZM229 22L230 22L230 23L229 23L229 22ZM239 22L240 22L240 23L239 23L239 22ZM242 22L243 22L243 23L242 23L242 22ZM28 23L29 23L29 24L28 24L28 23ZM35 23L36 23L36 24L35 24L35 23ZM47 23L48 23L48 24L47 24L47 23ZM54 23L55 23L55 24L54 24L54 23ZM74 23L75 23L75 24L74 24L74 23ZM107 23L108 23L108 24L107 24L107 23ZM165 23L166 23L166 24L165 24L165 23ZM176 23L177 23L177 24L176 24L176 23ZM228 23L229 23L229 24L228 24L228 23ZM11 24L12 24L12 25L11 25L11 24ZM27 24L28 24L28 25L27 25L27 24ZM33 24L34 24L34 25L33 25L33 24ZM49 24L50 24L50 25L49 25L49 24ZM55 24L56 24L56 25L55 25L55 24ZM70 24L71 24L71 25L70 25L70 24ZM109 24L110 24L110 25L109 25L109 24ZM120 24L121 24L121 25L120 25L120 24ZM156 24L157 24L157 25L156 25L156 24ZM26 25L27 25L27 26L26 26L26 25ZM31 25L32 25L32 26L31 26L31 25ZM51 25L52 25L52 26L51 26L51 25ZM75 25L76 25L76 26L75 26L75 25ZM110 25L111 25L111 26L110 26L110 25ZM147 25L148 25L148 26L147 26L147 25ZM164 25L165 25L165 26L164 26L164 25ZM10 26L11 26L11 27L10 27L10 26ZM25 26L26 26L26 27L25 27L25 26ZM173 26L174 26L174 27L173 27L173 26ZM218 26L219 26L219 28L218 28L218 26ZM24 27L25 27L25 28L24 28L24 27ZM54 27L55 27L55 28L54 28L54 27ZM163 27L164 27L164 28L163 28L163 27ZM55 28L56 28L56 29L55 29L55 28ZM77 28L78 28L78 29L77 29L77 28ZM112 28L113 28L113 29L112 29L112 28ZM157 28L158 28L158 34L157 34L157 28ZM3 29L4 29L4 32L3 32L3 29ZM56 29L57 29L57 30L56 30L56 29ZM60 29L61 29L61 30L60 30L60 29ZM261 29L267 29L267 30L261 30L261 29ZM292 29L297 29L297 30L292 30L292 29ZM318 29L319 29L319 30L318 30L318 29ZM320 29L321 29L321 30L320 30L320 29ZM364 29L365 29L365 30L364 30L364 29ZM385 29L391 29L391 30L385 30L385 29ZM416 29L423 29L423 30L416 30L416 29ZM9 30L10 30L10 32L9 32L9 30ZM22 30L23 30L23 31L22 31L22 30ZM78 30L79 30L79 31L78 31L78 30ZM122 30L123 30L123 31L122 31L122 30ZM148 30L149 30L149 32L148 32L148 30ZM162 30L163 30L163 31L162 31L162 30ZM171 30L172 30L172 31L171 31L171 30ZM258 30L259 30L259 31L258 31L258 30ZM288 30L289 30L289 31L288 31L288 30ZM299 30L300 30L300 31L299 31L299 30ZM305 30L310 30L310 31L305 31L305 30ZM316 30L317 30L317 31L316 31L316 30ZM322 30L323 30L323 31L322 31L322 30ZM335 30L337 30L337 31L335 31L335 30ZM360 30L361 30L361 31L360 31L360 30ZM368 30L369 30L369 31L368 31L368 30ZM381 30L382 30L382 31L381 31L381 30ZM393 30L394 30L394 31L393 31L393 30ZM413 30L414 30L414 31L413 31L413 30ZM425 30L426 30L426 31L425 31L425 30ZM25 31L26 31L26 32L25 32L25 31ZM61 31L62 31L62 32L61 32L61 31ZM113 31L114 31L114 33L113 33L113 31ZM219 31L220 31L220 32L219 32L219 31ZM229 31L230 31L230 32L229 32L229 31ZM256 31L257 31L257 32L256 32L256 31ZM271 31L272 31L272 32L271 32L271 31ZM286 31L287 31L287 32L286 32L286 31ZM310 31L311 31L311 32L310 32L310 31ZM334 31L335 31L335 32L334 32L334 31ZM342 31L343 31L343 33L342 33L342 31ZM352 31L353 31L353 32L352 32L352 31ZM358 31L359 31L359 32L358 32L358 31ZM369 31L370 31L370 32L369 32L369 31ZM379 31L380 31L380 32L379 32L379 31ZM427 31L428 31L428 32L427 32L427 31ZM21 32L22 32L22 33L21 33L21 32ZM58 32L59 32L59 33L58 33L58 32ZM74 32L75 32L75 33L74 33L74 32ZM79 32L80 32L80 33L79 33L79 32ZM230 32L231 32L231 33L230 33L230 32ZM314 32L315 32L315 33L314 33L314 32ZM323 32L324 32L324 34L323 34L323 32ZM350 32L351 32L351 33L350 33L350 32ZM409 32L410 32L410 33L409 33L409 32ZM24 33L25 33L25 34L24 34L24 33ZM161 33L162 33L162 35L161 35L161 33ZM220 33L221 33L221 34L220 34L220 33ZM231 33L232 33L232 34L231 34L231 33ZM349 33L350 33L350 34L349 34L349 33ZM398 33L399 33L399 34L398 34L398 33ZM20 34L21 34L21 35L20 35L20 34ZM59 34L60 34L60 35L59 35L59 34ZM80 34L81 34L81 35L80 35L80 34ZM170 34L171 34L171 36L170 36L170 34ZM274 34L275 34L275 35L274 35L274 34ZM283 34L284 34L284 35L283 35L283 34ZM369 34L370 34L370 35L369 35L369 34ZM4 35L5 35L5 36L4 36L4 35ZM8 35L9 35L9 36L8 36L8 35ZM23 35L24 35L24 36L23 36L23 35ZM221 35L222 35L222 36L221 36L221 35ZM252 35L253 35L253 36L252 36L252 35ZM263 35L265 35L265 36L263 36L263 35ZM282 35L283 35L283 36L282 36L282 35ZM291 35L292 35L292 36L291 36L291 35ZM295 35L296 35L296 36L295 36L295 35ZM310 35L311 35L311 36L310 36L310 35ZM407 35L408 35L408 36L407 36L407 35ZM428 35L429 35L429 36L428 36L428 35ZM5 36L6 36L6 37L5 37L5 36ZM60 36L61 36L61 37L60 37L60 36ZM63 36L64 36L64 37L63 37L63 36ZM75 36L76 36L76 38L75 38L75 36ZM123 36L124 36L124 44L123 44L123 36ZM147 36L148 36L148 37L147 37L147 36ZM222 36L223 36L223 37L222 37L222 36ZM234 36L235 36L235 37L234 37L234 36ZM261 36L262 36L262 37L261 37L261 36ZM275 36L276 36L276 37L275 37L275 36ZM290 36L291 36L291 37L290 37L290 36ZM309 36L310 36L310 37L309 37L309 36ZM315 36L316 36L316 42L315 42L315 36ZM374 36L375 36L375 37L374 37L374 36ZM384 36L385 36L385 37L384 37L384 36ZM400 36L401 36L401 37L400 37L400 36ZM417 36L418 36L418 37L417 37L417 36ZM423 36L424 36L424 37L423 37L423 36ZM19 37L20 37L20 39L19 39L19 37ZM22 37L23 37L23 39L22 39L22 37ZM156 37L157 37L157 38L156 38L156 37ZM185 37L195 37L195 38L185 38L185 37ZM223 37L224 37L224 38L223 38L223 37ZM235 37L236 37L236 38L235 38L235 37ZM260 37L261 37L261 38L260 38L260 37ZM350 37L351 37L351 62L350 62L350 37ZM361 37L362 37L362 38L361 38L361 37ZM383 37L384 37L384 38L383 38L383 37ZM391 37L392 37L392 38L391 38L391 37ZM146 38L147 38L147 39L146 39L146 38ZM195 38L196 38L196 39L195 39L195 38ZM224 38L225 38L225 39L224 39L224 38ZM236 38L237 38L237 39L236 39L236 38ZM259 38L260 38L260 39L259 39L259 38ZM267 38L268 38L268 39L267 39L267 38ZM289 38L290 38L290 39L289 39L289 38ZM306 38L307 38L307 39L306 39L306 38ZM359 38L360 38L360 39L359 39L359 38ZM373 38L374 38L374 39L373 39L373 38ZM155 39L156 39L156 40L155 40L155 39ZM225 39L226 39L226 40L225 40L225 39ZM237 39L238 39L238 40L237 40L237 39ZM250 39L251 39L251 40L250 40L250 39ZM298 39L299 39L299 40L298 40L298 39ZM392 39L393 39L393 40L392 40L392 39ZM401 39L402 39L402 40L401 40L401 39ZM61 40L62 40L62 41L61 41L61 40ZM144 40L145 40L145 41L144 41L144 40ZM226 40L227 40L227 41L226 41L226 40ZM238 40L239 40L239 41L238 41L238 40ZM141 41L143 41L143 42L141 42L141 41ZM154 41L155 41L155 42L154 42L154 41ZM183 41L184 41L184 42L183 42L183 41ZM227 41L228 41L228 42L227 42L227 41ZM239 41L240 41L240 42L239 42L239 41ZM258 41L259 41L259 42L258 42L258 41ZM372 41L373 41L373 43L372 43L372 41ZM381 41L382 41L382 43L381 43L381 41ZM139 42L140 42L140 45L139 45L139 42ZM153 42L154 42L154 43L153 43L153 42ZM228 42L229 42L229 43L228 43L228 42ZM240 42L241 42L241 43L240 43L240 42ZM249 42L250 42L250 45L249 45L249 42ZM276 42L277 42L277 47L276 47L276 42ZM307 42L308 42L308 44L307 44L307 42ZM407 42L408 42L408 43L407 43L407 42ZM22 43L23 43L23 44L22 44L22 43ZM152 43L153 43L153 44L152 44L152 43ZM229 43L230 43L230 44L229 44L229 43ZM241 43L242 43L242 44L241 44L241 43ZM393 43L394 43L394 45L393 45L393 43ZM402 43L403 43L403 45L402 45L402 43ZM419 43L420 43L420 44L419 44L419 43ZM61 44L62 44L62 45L61 45L61 44ZM187 44L188 44L188 60L187 60L187 44ZM230 44L231 44L231 45L230 45L230 44ZM289 44L290 44L290 45L289 45L289 44ZM408 44L409 44L409 45L408 45L408 44ZM420 44L421 44L421 45L420 45L420 44ZM148 45L149 45L149 46L148 46L148 45ZM231 45L232 45L232 46L231 46L231 45ZM258 45L265 45L265 46L258 46L258 45ZM3 46L4 46L4 50L3 50L3 46ZM74 46L75 46L75 47L74 47L74 46ZM78 46L79 46L79 47L78 47L78 46ZM142 46L143 46L143 47L142 47L142 46ZM145 46L147 46L147 47L145 47L145 46ZM232 46L233 46L233 47L232 47L232 46ZM243 46L244 46L244 47L243 47L243 46ZM423 46L424 46L424 47L423 47L423 46ZM23 47L24 47L24 48L23 48L23 47ZM60 47L61 47L61 48L60 48L60 47ZM113 47L114 47L114 49L113 49L113 47ZM290 47L291 47L291 48L290 48L290 47ZM298 47L299 47L299 48L298 48L298 47ZM411 47L412 47L412 48L411 48L411 47ZM424 47L425 47L425 48L424 48L424 47ZM8 48L9 48L9 49L8 49L8 48ZM20 48L21 48L21 49L20 49L20 48ZM63 48L64 48L64 49L63 49L63 48ZM170 48L171 48L171 50L170 50L170 48ZM244 48L245 48L245 49L244 49L244 48ZM281 48L282 48L282 49L281 49L281 48ZM306 48L307 48L307 49L306 49L306 48ZM323 48L324 48L324 57L323 57L323 48ZM412 48L413 48L413 49L412 49L412 48ZM24 49L25 49L25 50L24 50L24 49ZM59 49L60 49L60 50L59 50L59 49ZM73 49L74 49L74 51L73 51L73 49ZM292 49L293 49L293 50L292 50L292 49ZM413 49L414 49L414 50L413 50L413 49ZM62 50L63 50L63 51L62 51L62 50ZM122 50L123 50L123 51L122 51L122 50ZM161 50L162 50L162 52L161 52L161 50ZM235 50L236 50L236 51L235 51L235 50ZM272 50L273 50L273 51L272 51L272 50ZM282 50L283 50L283 51L282 51L282 50ZM305 50L306 50L306 51L305 51L305 50ZM21 51L22 51L22 52L21 52L21 51ZM25 51L26 51L26 52L25 52L25 51ZM58 51L59 51L59 52L58 52L58 51ZM258 51L266 51L266 52L258 52L258 51ZM283 51L284 51L284 52L283 52L283 51ZM304 51L305 51L305 52L304 52L304 51ZM402 51L403 51L403 54L402 54L402 51ZM416 51L417 51L417 52L416 52L416 51ZM428 51L429 51L429 52L428 52L428 51ZM4 52L5 52L5 53L4 53L4 52ZM9 52L10 52L10 54L9 54L9 52ZM61 52L62 52L62 53L61 53L61 52ZM112 52L113 52L113 53L112 53L112 52ZM257 52L258 52L258 53L257 53L257 52ZM417 52L418 52L418 53L417 53L417 52ZM121 53L122 53L122 54L121 54L121 53ZM171 53L172 53L172 54L171 54L171 53ZM302 53L303 53L303 54L302 54L302 53ZM393 53L394 53L394 54L393 54L393 53ZM23 54L24 54L24 55L23 55L23 54ZM27 54L28 54L28 55L27 55L27 54ZM60 54L61 54L61 55L60 55L60 54ZM111 54L112 54L112 55L111 55L111 54ZM162 54L163 54L163 55L162 55L162 54ZM284 54L285 54L285 55L284 55L284 54ZM10 55L11 55L11 56L10 56L10 55ZM28 55L29 55L29 56L28 56L28 55ZM55 55L56 55L56 56L55 56L55 55ZM59 55L60 55L60 56L59 56L59 55ZM72 55L73 55L73 56L72 56L72 55ZM172 55L173 55L173 56L172 56L172 55ZM249 55L250 55L250 57L249 57L249 55ZM283 55L284 55L284 56L283 56L283 55ZM297 55L299 55L299 56L297 56L297 55ZM381 55L382 55L382 56L381 56L381 55ZM420 55L421 55L421 56L420 56L420 55ZM29 56L30 56L30 57L29 57L29 56ZM110 56L111 56L111 57L110 57L110 56ZM120 56L121 56L121 57L120 57L120 56ZM258 56L259 56L259 57L258 57L258 56ZM282 56L283 56L283 57L282 57L282 56ZM372 56L373 56L373 57L372 57L372 56ZM11 57L12 57L12 58L11 58L11 57ZM71 57L72 57L72 58L71 58L71 57ZM109 57L110 57L110 58L109 58L109 57ZM163 57L164 57L164 58L163 58L163 57ZM235 57L236 57L236 58L235 58L235 57ZM281 57L282 57L282 58L281 58L281 57ZM392 57L393 57L393 58L392 58L392 57ZM401 57L402 57L402 58L401 58L401 57ZM7 58L8 58L8 59L7 59L7 58ZM51 58L52 58L52 59L51 59L51 58ZM108 58L109 58L109 59L108 59L108 58ZM221 58L222 58L222 59L221 59L221 58ZM244 58L245 58L245 59L244 59L244 58ZM259 58L260 58L260 59L259 59L259 58ZM280 58L281 58L281 61L280 61L280 58ZM289 58L290 58L290 59L289 59L289 58ZM382 58L383 58L383 59L382 59L382 58ZM12 59L13 59L13 60L12 60L12 59ZM49 59L50 59L50 60L49 60L49 59ZM70 59L71 59L71 60L70 60L70 59ZM118 59L119 59L119 60L118 60L118 59ZM223 59L224 59L224 60L223 60L223 59ZM250 59L251 59L251 60L250 60L250 59ZM260 59L261 59L261 60L260 60L260 59ZM272 59L273 59L273 60L272 60L272 59ZM274 59L275 59L275 60L274 60L274 59ZM292 59L296 59L296 60L292 60L292 59ZM373 59L374 59L374 60L373 60L373 59ZM391 59L392 59L392 60L391 60L391 59ZM400 59L401 59L401 60L400 60L400 59ZM408 59L409 59L409 60L408 60L408 59ZM8 60L9 60L9 61L8 61L8 60ZM29 60L30 60L30 61L29 61L29 60ZM47 60L48 60L48 61L47 61L47 60ZM54 60L55 60L55 61L54 61L54 60ZM78 60L79 60L79 62L78 62L78 60ZM98 60L101 60L101 61L98 61L98 60ZM102 60L105 60L105 61L102 61L102 60ZM138 60L139 60L139 63L138 63L138 60ZM165 60L166 60L166 61L165 61L165 60ZM225 60L226 60L226 61L225 61L225 60ZM232 60L233 60L233 61L232 61L232 60ZM262 60L263 60L263 61L262 61L262 60ZM269 60L270 60L270 61L269 61L269 60ZM302 60L304 60L304 61L302 61L302 60ZM315 60L316 60L316 61L315 61L315 60ZM325 60L326 60L326 61L325 61L325 60ZM342 60L343 60L343 62L342 62L342 60ZM390 60L391 60L391 61L390 61L390 60ZM411 60L412 60L412 61L411 61L411 60ZM429 60L430 60L430 61L429 61L429 60ZM39 61L40 61L40 62L39 62L39 61ZM43 61L44 61L44 62L43 62L43 61ZM182 61L183 61L183 62L182 62L182 61ZM218 61L219 61L219 62L218 62L218 61ZM243 61L244 61L244 62L243 62L243 61ZM251 61L252 61L252 62L251 62L251 61ZM305 61L306 61L306 62L305 62L305 61ZM374 61L375 61L375 62L374 62L374 61ZM385 61L386 61L386 62L385 62L385 61ZM399 61L400 61L400 62L399 62L399 61ZM415 61L417 61L417 62L415 62L415 61ZM14 62L15 62L15 63L14 63L14 62ZM51 62L52 62L52 63L51 63L51 62ZM242 62L243 62L243 63L242 63L242 62ZM281 62L282 62L282 63L281 63L281 62ZM307 62L308 62L308 63L307 63L307 62ZM398 62L399 62L399 63L398 63L398 62ZM406 62L407 62L407 63L406 63L406 62ZM428 62L429 62L429 63L428 63L428 62ZM15 63L16 63L16 64L15 64L15 63ZM35 63L36 63L36 64L35 64L35 63ZM42 63L43 63L43 64L42 64L42 63ZM48 63L49 63L49 64L48 64L48 63ZM114 63L115 63L115 64L114 64L114 63ZM252 63L253 63L253 64L252 64L252 63ZM282 63L283 63L283 64L282 64L282 63ZM308 63L309 63L309 64L308 64L308 63ZM316 63L317 63L317 64L316 64L316 63ZM10 64L11 64L11 65L10 65L10 64ZM38 64L39 64L39 65L38 65L38 64ZM129 64L130 64L130 67L129 67L129 64ZM169 64L170 64L170 65L169 65L169 64ZM218 64L219 64L219 65L218 65L218 64ZM253 64L254 64L254 65L253 65L253 64ZM274 64L275 64L275 65L274 65L274 64ZM284 64L285 64L285 65L284 65L284 64ZM309 64L310 64L310 65L309 65L309 64ZM317 64L318 64L318 65L317 65L317 64ZM342 64L343 64L343 65L342 65L342 64ZM406 64L407 64L407 65L406 65L406 64ZM193 65L194 65L194 66L193 66L193 65ZM219 65L220 65L220 66L219 66L219 65ZM239 65L240 65L240 66L239 66L239 65ZM273 65L274 65L274 66L273 66L273 65ZM287 65L288 65L288 66L287 66L287 65ZM318 65L319 65L319 66L318 66L318 65ZM334 65L335 65L335 66L334 66L334 65ZM336 65L337 65L337 66L336 66L336 65ZM358 65L359 65L359 66L358 66L358 65ZM395 65L396 65L396 66L395 66L395 65ZM407 65L408 65L408 66L407 66L407 65ZM425 65L426 65L426 66L425 66L425 65ZM11 66L12 66L12 68L11 68L11 66ZM63 66L64 66L64 67L63 67L63 66ZM89 66L91 66L91 67L89 67L89 66ZM107 66L108 66L108 67L107 67L107 66ZM136 66L137 66L137 67L136 67L136 66ZM173 66L174 66L174 67L173 67L173 66ZM191 66L192 66L192 67L191 67L191 66ZM221 66L222 66L222 67L221 67L221 66ZM237 66L238 66L238 67L237 67L237 66ZM256 66L257 66L257 67L256 67L256 66ZM271 66L272 66L272 67L271 67L271 66ZM295 66L299 66L299 67L295 67L295 66ZM320 66L321 66L321 67L320 67L320 66ZM332 66L333 66L333 67L332 67L332 66ZM357 66L358 66L358 67L357 67L357 66ZM379 66L380 66L380 67L379 67L379 66ZM393 66L394 66L394 67L393 67L393 66ZM409 66L410 66L410 67L409 67L409 66ZM423 66L424 66L424 67L423 67L423 66ZM176 67L177 67L177 68L176 68L176 67ZM187 67L188 67L188 68L187 68L187 67ZM224 67L225 67L225 68L224 68L224 67ZM234 67L235 67L235 68L234 68L234 67ZM259 67L261 67L261 68L259 68L259 67ZM268 67L269 67L269 68L268 68L268 67ZM310 67L311 67L311 71L310 71L310 67ZM323 67L325 67L325 68L323 68L323 67ZM328 67L330 67L330 68L328 68L328 67ZM382 67L384 67L384 68L382 68L382 67ZM390 67L392 67L392 68L390 68L390 67ZM412 67L414 67L414 68L412 68L412 67ZM420 67L421 67L421 68L420 68L420 67ZM60 68L61 68L61 69L60 69L60 68ZM77 68L78 68L78 70L77 70L77 68ZM10 69L11 69L11 70L10 70L10 69ZM59 69L60 69L60 70L59 70L59 69ZM289 69L290 69L290 70L289 70L289 69ZM291 69L292 69L292 70L291 70L291 69ZM57 70L58 70L58 71L57 71L57 70ZM302 70L303 70L303 71L302 71L302 70ZM7 71L8 71L8 72L7 72L7 71ZM23 71L24 71L24 72L23 72L23 71ZM55 71L56 71L56 72L55 72L55 71ZM64 71L65 71L65 72L64 72L64 71ZM68 71L69 71L69 72L68 72L68 71ZM286 71L287 71L287 72L286 72L286 71ZM292 71L293 71L293 73L292 73L292 71ZM25 72L26 72L26 73L25 73L25 72ZM53 72L54 72L54 73L53 73L53 72ZM62 72L63 72L63 73L62 73L62 72ZM285 72L286 72L286 73L285 73L285 72ZM4 73L5 73L5 75L4 75L4 73ZM28 73L29 73L29 74L28 74L28 73ZM48 73L50 73L50 74L48 74L48 73ZM60 73L61 73L61 74L60 74L60 73ZM76 73L77 73L77 74L76 74L76 73ZM284 73L285 73L285 74L284 74L284 73ZM301 73L302 73L302 74L301 74L301 73ZM309 73L310 73L310 74L309 74L309 73ZM34 74L36 74L36 75L34 75L34 74ZM44 74L45 74L45 75L44 75L44 74ZM58 74L59 74L59 75L58 75L58 74ZM283 74L284 74L284 75L283 75L283 74ZM43 75L44 75L44 77L43 77L43 75ZM282 75L283 75L283 76L282 76L282 75ZM308 75L309 75L309 76L308 76L308 75ZM6 76L7 76L7 77L6 77L6 76ZM37 76L38 76L38 78L37 78L37 76ZM54 76L55 76L55 77L54 77L54 76ZM75 76L76 76L76 77L75 77L75 76ZM281 76L282 76L282 77L281 77L281 76ZM9 77L11 77L11 78L9 78L9 77ZM52 77L53 77L53 78L52 78L52 77ZM71 77L72 77L72 78L71 78L71 77ZM74 77L75 77L75 78L74 78L74 77ZM280 77L281 77L281 78L280 78L280 77ZM14 78L17 78L17 79L14 79L14 78ZM45 78L46 78L46 79L45 79L45 78ZM49 78L50 78L50 79L49 79L49 78ZM287 78L288 78L288 79L287 79L287 78ZM296 78L297 78L297 79L296 79L296 78ZM24 79L27 79L27 80L24 80L24 79ZM34 79L35 79L35 80L34 80L34 79ZM294 79L295 79L295 80L294 80L294 79ZM288 80L290 80L290 81L288 81L288 80ZM278 81L279 81L279 83L278 83L278 81ZM302 81L303 81L303 82L302 82L302 81ZM299 83L300 83L300 84L299 84L299 83ZM328 83L329 83L329 85L328 85L328 83ZM309 84L310 84L310 85L309 85L309 84ZM313 84L314 84L314 85L313 85L313 84ZM325 84L326 84L326 85L325 85L325 84ZM282 85L283 85L283 86L282 86L282 85ZM293 85L294 85L294 86L293 86L293 85ZM324 85L325 85L325 86L324 86L324 85ZM327 85L328 85L328 86L327 86L327 85ZM311 86L313 86L313 87L311 87L311 86ZM319 86L320 86L320 87L319 87L319 86ZM326 86L327 86L327 87L326 87L326 86ZM343 86L344 86L344 87L343 87L343 86ZM325 87L326 87L326 88L325 88L325 87ZM360 87L361 87L361 88L360 88L360 87ZM326 88L327 88L327 89L326 89L326 88ZM354 88L355 88L355 89L354 89L354 88ZM371 88L372 88L372 89L371 89L371 88ZM385 88L386 88L386 89L385 89L385 88ZM394 88L395 88L395 89L394 89L394 88ZM411 88L412 88L412 89L411 89L411 88ZM432 88L433 88L433 89L432 89L432 88ZM310 89L311 89L311 90L310 90L310 89ZM323 89L324 89L324 90L323 90L323 89ZM328 89L329 89L329 90L328 90L328 89ZM331 89L332 89L332 90L331 90L331 89ZM333 89L334 89L334 90L333 90L333 89ZM348 89L349 89L349 91L348 91L348 89ZM351 89L352 89L352 90L351 90L351 89ZM356 89L357 89L357 90L356 90L356 89ZM359 89L360 89L360 90L359 90L359 89ZM368 89L369 89L369 90L368 90L368 89ZM382 89L383 89L383 90L382 90L382 89ZM388 89L389 89L389 90L388 90L388 89ZM397 89L398 89L398 90L397 90L397 89ZM401 89L402 89L402 90L401 90L401 89ZM421 89L422 89L422 90L421 90L421 89ZM423 89L424 89L424 90L423 90L423 89ZM427 89L428 89L428 90L427 90L427 89ZM429 89L430 89L430 90L429 90L429 89ZM435 89L436 89L436 90L435 90L435 89ZM307 90L308 90L308 91L307 91L307 90ZM311 90L312 90L312 91L311 91L311 90ZM322 90L323 90L323 91L322 91L322 90ZM329 90L330 90L330 91L329 91L329 90ZM341 90L342 90L342 91L341 91L341 90ZM350 90L351 90L351 91L350 91L350 90ZM357 90L358 90L358 91L357 91L357 90ZM400 90L401 90L401 91L400 91L400 90ZM436 90L437 90L437 91L436 91L436 90ZM308 91L309 91L309 92L308 92L308 91ZM312 91L313 91L313 92L312 92L312 91ZM331 91L332 91L332 100L334 100L334 101L331 101L331 91ZM370 91L371 91L371 92L370 92L370 91ZM381 91L382 91L382 93L381 93L381 91ZM387 91L388 91L388 92L387 92L387 91ZM390 91L391 91L391 92L390 92L390 91ZM393 91L394 91L394 92L393 92L393 91ZM395 91L396 91L396 92L395 92L395 91ZM398 91L399 91L399 92L400 92L400 94L399 94L399 95L398 95L398 91ZM424 91L427 91L427 92L424 92L424 91ZM431 91L432 91L432 92L431 92L431 91ZM309 92L310 92L310 93L309 93L309 92ZM313 92L314 92L314 93L313 93L313 92ZM321 92L322 92L322 94L321 94L321 92ZM324 92L325 92L325 93L327 93L327 94L324 94L324 92ZM334 92L335 92L335 99L334 99L334 92ZM349 92L350 92L350 94L349 94L349 92ZM352 92L353 92L353 93L355 93L355 94L352 94L352 92ZM372 92L373 92L373 93L372 93L372 92ZM375 92L376 92L376 94L375 94L375 92ZM402 92L403 92L403 94L402 94L402 92ZM310 93L311 93L311 94L310 94L310 93ZM314 93L315 93L315 94L314 94L314 93ZM366 93L367 93L367 97L366 97L366 93ZM370 93L372 93L372 94L370 94L370 93ZM386 93L387 93L387 94L386 94L386 93ZM393 93L396 93L396 94L393 94L393 93ZM434 93L435 93L435 96L434 96L434 93ZM437 93L438 93L438 97L437 97L437 93ZM311 94L312 94L312 95L311 95L311 94ZM387 94L388 94L388 95L387 95L387 94ZM427 94L428 94L428 95L427 95L427 94ZM315 95L316 95L316 98L315 98L315 95ZM328 95L329 95L329 96L328 96L328 95ZM356 95L357 95L357 96L356 96L356 95ZM373 95L375 95L375 96L373 96L373 95ZM388 95L389 95L389 96L388 96L388 95ZM396 95L398 95L398 96L396 96L396 95ZM400 95L401 95L401 97L400 97L400 95ZM407 95L408 95L408 96L407 96L407 95ZM324 96L325 96L325 97L324 97L324 96ZM349 96L350 96L350 98L349 98L349 96ZM352 96L353 96L353 97L352 97L352 96ZM385 96L386 96L386 97L385 97L385 96ZM406 96L407 96L407 97L406 97L406 96ZM307 97L308 97L308 98L307 98L307 97ZM321 97L322 97L322 98L321 98L321 97ZM393 97L394 97L394 98L393 98L393 97ZM310 98L311 98L311 99L310 99L310 98ZM326 98L327 98L327 99L326 99L326 98ZM329 98L330 98L330 100L329 100L329 98ZM346 98L347 98L347 99L346 99L346 98ZM348 98L349 98L349 100L348 100L348 98ZM354 98L355 98L355 99L354 99L354 98ZM363 98L366 98L366 99L363 99L363 98ZM371 98L372 98L372 99L371 99L371 98ZM381 98L382 98L382 100L381 100L381 98ZM384 98L385 98L385 99L384 99L384 98ZM390 98L391 98L391 99L390 99L390 98ZM395 98L396 98L396 99L395 99L395 98ZM399 98L400 98L400 99L399 99L399 98ZM407 98L408 98L408 99L407 99L407 98ZM410 98L411 98L411 99L410 99L410 98ZM414 98L415 98L415 99L414 99L414 98ZM428 98L429 98L429 99L428 99L428 98ZM432 98L433 98L433 99L432 99L432 98ZM436 98L437 98L437 99L436 99L436 98ZM314 99L315 99L315 100L314 100L314 99ZM322 99L323 99L323 100L322 100L322 99ZM343 99L344 99L344 100L343 100L343 99ZM350 99L351 99L351 100L350 100L350 99ZM357 99L358 99L358 100L357 100L357 99ZM388 99L389 99L389 100L388 100L388 99ZM400 99L401 99L401 100L400 100L400 99ZM408 99L409 99L409 100L408 100L408 99ZM308 100L309 100L309 101L308 101L308 100ZM312 100L313 100L313 101L312 101L312 100ZM317 100L319 100L319 101L317 101L317 100ZM324 100L325 100L325 101L324 101L324 100ZM328 100L329 100L329 101L328 101L328 100ZM337 100L340 100L340 101L337 101L337 100ZM344 100L345 100L345 101L344 101L344 100ZM347 100L348 100L348 101L347 101L347 100ZM352 100L353 100L353 101L352 101L352 100ZM356 100L357 100L357 101L356 101L356 100ZM361 100L362 100L362 101L361 101L361 100ZM369 100L370 100L370 101L369 101L369 100ZM373 100L374 100L374 101L373 101L373 100ZM382 100L383 100L383 101L382 101L382 100ZM386 100L387 100L387 101L386 101L386 100ZM392 100L393 100L393 101L392 101L392 100ZM396 100L397 100L397 101L396 101L396 100ZM403 100L406 100L406 101L404 101L404 103L403 103L403 100ZM412 100L413 100L413 101L412 101L412 100ZM415 100L416 100L416 101L415 101L415 100ZM421 100L424 100L424 101L421 101L421 100ZM430 100L431 100L431 101L430 101L430 100ZM434 100L435 100L435 101L434 101L434 100ZM401 101L402 101L402 102L401 102L401 101ZM400 102L401 102L401 103L400 103L400 102ZM399 103L400 103L400 104L399 104L399 103ZM402 103L403 103L403 104L402 104L402 103ZM407 104L408 104L408 105L407 105L407 104ZM405 105L406 105L406 106L405 106L405 105ZM401 106L403 106L403 107L401 107L401 106Z"></path>
<path fill="#79bce1" fill-rule="evenodd" d="M50 3L55 3L55 4L50 4L50 3ZM47 4L48 4L48 5L47 5L47 4ZM60 4L63 4L63 5L60 5L60 4ZM68 5L70 5L70 6L68 6L68 5ZM73 6L74 6L74 7L73 7L73 6ZM47 7L48 7L48 8L47 8L47 7ZM76 7L77 7L77 8L76 8L76 7ZM49 8L51 8L51 9L49 9L49 8ZM78 8L79 8L79 9L78 9L78 8ZM53 9L54 9L54 10L53 10L53 9ZM56 10L57 10L57 11L56 11L56 10ZM78 11L79 11L79 12L78 12L78 11ZM59 12L60 12L60 13L59 13L59 12ZM75 12L76 12L76 13L75 13L75 12ZM61 13L62 13L62 14L61 14L61 13ZM62 14L63 14L63 15L62 15L62 14ZM63 15L64 15L64 16L63 16L63 15ZM228 15L230 15L230 16L228 16L228 15ZM236 15L238 15L238 16L236 16L236 15ZM225 16L226 16L226 17L225 17L225 16ZM240 16L241 16L241 17L240 17L240 16ZM242 17L243 17L243 18L242 18L242 17ZM66 18L67 18L67 19L66 19L66 18ZM222 18L223 18L223 19L222 19L222 18ZM243 18L244 18L244 20L243 20L243 18ZM67 19L68 19L68 20L67 20L67 19ZM72 19L73 19L73 20L72 20L72 19ZM221 19L222 19L222 20L221 20L221 19ZM46 20L48 20L48 21L46 21L46 20ZM43 21L44 21L44 22L43 22L43 21ZM49 21L50 21L50 22L49 22L49 21ZM230 21L231 21L231 22L230 22L230 21ZM237 21L238 21L238 22L237 22L237 21ZM45 22L47 22L47 23L45 23L45 22ZM51 22L52 22L52 23L51 23L51 22ZM73 22L74 22L74 23L73 23L73 22ZM240 22L242 22L242 23L240 23L240 22ZM48 23L49 23L49 24L48 24L48 23ZM53 23L54 23L54 24L53 24L53 23ZM70 23L71 23L71 24L70 24L70 23ZM219 23L220 23L220 24L219 24L219 23ZM50 24L51 24L51 25L50 25L50 24ZM54 24L55 24L55 25L54 25L54 24ZM52 25L53 25L53 26L52 26L52 25ZM56 25L57 25L57 26L56 26L56 25ZM71 25L72 25L72 26L71 26L71 25ZM227 25L228 25L228 29L227 29L227 25ZM53 26L54 26L54 27L53 27L53 26ZM57 26L58 26L58 27L57 27L57 26ZM58 27L59 27L59 28L58 28L58 27ZM72 27L73 27L73 28L72 28L72 27ZM76 27L77 27L77 28L76 28L76 27ZM59 28L60 28L60 29L59 29L59 28ZM73 29L74 29L74 30L73 30L73 29ZM77 29L78 29L78 30L77 30L77 29ZM319 29L320 29L320 30L319 30L319 29ZM57 30L58 30L58 31L57 31L57 30ZM60 30L61 30L61 31L60 31L60 30ZM219 30L220 30L220 31L219 31L219 30ZM228 30L229 30L229 31L228 31L228 30ZM259 30L260 30L260 31L259 31L259 30ZM269 30L270 30L270 31L269 31L269 30ZM289 30L290 30L290 31L289 31L289 30ZM298 30L299 30L299 31L298 31L298 30ZM337 30L342 30L342 31L337 31L337 30ZM361 30L362 30L362 31L361 31L361 30ZM367 30L368 30L368 31L367 31L367 30ZM382 30L383 30L383 31L382 31L382 30ZM392 30L393 30L393 31L392 31L392 30ZM414 30L415 30L415 31L414 31L414 30ZM424 30L425 30L425 31L424 31L424 30ZM58 31L59 31L59 32L58 32L58 31ZM74 31L75 31L75 32L74 32L74 31ZM287 31L288 31L288 32L287 32L287 31ZM315 31L316 31L316 32L315 32L315 31ZM322 31L323 31L323 32L322 32L322 31ZM353 31L356 31L356 32L353 32L353 31ZM359 31L360 31L360 32L359 32L359 31ZM395 31L396 31L396 32L395 32L395 31ZM411 31L412 31L412 32L411 32L411 31ZM255 32L256 32L256 33L255 33L255 32ZM272 32L273 32L273 33L272 33L272 32ZM285 32L286 32L286 33L285 33L285 32ZM310 32L311 32L311 35L310 35L310 32ZM334 32L335 32L335 33L334 33L334 32ZM356 32L358 32L358 33L356 33L356 32ZM369 32L370 32L370 34L369 34L369 32ZM378 32L379 32L379 33L378 33L378 32ZM396 32L397 32L397 33L396 33L396 32ZM410 32L411 32L411 33L410 33L410 32ZM428 32L429 32L429 33L428 33L428 32ZM59 33L60 33L60 34L59 34L59 33ZM62 33L63 33L63 35L62 35L62 33ZM254 33L255 33L255 34L254 34L254 33ZM273 33L274 33L274 34L273 34L273 33ZM284 33L285 33L285 34L284 34L284 33ZM75 34L76 34L76 36L75 36L75 34ZM221 34L222 34L222 35L221 35L221 34ZM253 34L254 34L254 35L253 35L253 34ZM315 34L316 34L316 36L315 36L315 34ZM323 34L324 34L324 37L323 37L323 34ZM376 34L377 34L377 35L376 35L376 34ZM408 34L409 34L409 35L408 35L408 34ZM428 34L429 34L429 35L428 35L428 34ZM60 35L61 35L61 36L60 36L60 35ZM80 35L81 35L81 38L80 38L80 35ZM262 35L263 35L263 36L262 36L262 35ZM265 35L266 35L266 36L265 36L265 35ZM274 35L275 35L275 36L274 36L274 35ZM296 35L297 35L297 36L296 36L296 35ZM350 35L351 35L351 37L350 37L350 35ZM375 35L376 35L376 36L375 36L375 35ZM386 35L389 35L389 36L386 36L386 35ZM399 35L400 35L400 36L399 36L399 35ZM418 35L422 35L422 36L418 36L418 35ZM266 36L267 36L267 37L266 37L266 36ZM282 36L283 36L283 37L282 37L282 36ZM297 36L298 36L298 37L297 37L297 36ZM306 36L309 36L309 37L306 37L306 36ZM363 36L364 36L364 37L363 37L363 36ZM368 36L369 36L369 37L368 37L368 36ZM390 36L391 36L391 37L390 37L390 36ZM407 36L408 36L408 38L407 38L407 36ZM416 36L417 36L417 37L416 37L416 36ZM424 36L426 36L426 37L424 37L424 36ZM63 37L64 37L64 39L63 39L63 37ZM251 37L252 37L252 38L251 38L251 37ZM267 37L268 37L268 38L267 38L267 37ZM275 37L276 37L276 39L275 39L275 37ZM289 37L290 37L290 38L289 38L289 37ZM360 37L361 37L361 38L360 38L360 37ZM374 37L375 37L375 38L374 38L374 37ZM400 37L401 37L401 38L400 38L400 37ZM61 38L62 38L62 40L61 40L61 38ZM76 38L77 38L77 39L76 39L76 38ZM79 38L80 38L80 39L79 39L79 38ZM281 38L282 38L282 40L281 40L281 38ZM298 38L299 38L299 39L298 39L298 38ZM382 38L383 38L383 39L382 39L382 38ZM392 38L393 38L393 39L392 39L392 38ZM415 38L416 38L416 40L415 40L415 38ZM306 39L307 39L307 40L306 40L306 39ZM358 39L359 39L359 65L358 65L358 39ZM373 39L374 39L374 40L373 40L373 39ZM250 40L251 40L251 41L250 41L250 40ZM258 40L259 40L259 41L258 41L258 40ZM381 40L382 40L382 41L381 41L381 40ZM401 40L402 40L402 41L401 41L401 40ZM268 41L269 41L269 44L268 44L268 41ZM299 41L300 41L300 45L299 45L299 41ZM393 41L394 41L394 43L393 43L393 41ZM407 41L408 41L408 42L407 42L407 41ZM416 41L417 41L417 42L416 42L416 41ZM20 42L22 42L22 43L20 43L20 42ZM315 42L316 42L316 50L315 50L315 42ZM323 42L324 42L324 48L323 48L323 42ZM417 42L418 42L418 43L417 43L417 42ZM257 43L258 43L258 46L257 46L257 43ZM372 43L373 43L373 45L372 45L372 43ZM418 43L419 43L419 44L418 44L418 43ZM5 44L7 44L7 45L5 45L5 44ZM22 44L23 44L23 47L22 47L22 44ZM380 44L381 44L381 53L380 53L380 44ZM4 45L5 45L5 46L4 46L4 45ZM7 45L8 45L8 46L7 46L7 45ZM20 45L21 45L21 48L20 48L20 45ZM242 45L243 45L243 46L242 46L242 45ZM249 45L250 45L250 55L249 55L249 45ZM265 45L268 45L268 46L265 46L265 45ZM289 45L290 45L290 47L289 47L289 45ZM402 45L403 45L403 51L402 51L402 45ZM409 45L410 45L410 46L409 46L409 45ZM421 45L422 45L422 46L421 46L421 45ZM281 46L282 46L282 48L281 48L281 46ZM306 46L307 46L307 48L306 48L306 46ZM410 46L411 46L411 47L410 47L410 46ZM233 47L234 47L234 48L233 48L233 47ZM243 47L244 47L244 48L243 48L243 47ZM23 48L24 48L24 49L23 49L23 48ZM234 48L235 48L235 49L234 49L234 48ZM290 48L291 48L291 49L290 49L290 48ZM298 48L299 48L299 49L298 49L298 48ZM425 48L426 48L426 49L425 49L425 48ZM8 49L9 49L9 51L8 51L8 49ZM21 49L22 49L22 51L21 51L21 49ZM244 49L245 49L245 51L244 51L244 49ZM274 49L275 49L275 50L274 50L274 49ZM282 49L283 49L283 50L282 50L282 49ZM291 49L292 49L292 50L291 50L291 49ZM297 49L298 49L298 50L297 50L297 49ZM305 49L306 49L306 50L305 50L305 49ZM414 49L415 49L415 50L414 50L414 49ZM426 49L427 49L427 50L426 50L426 49ZM24 50L25 50L25 51L24 51L24 50ZM270 50L272 50L272 51L270 51L270 50ZM293 50L296 50L296 51L293 51L293 50ZM415 50L416 50L416 51L415 51L415 50ZM427 50L428 50L428 51L427 51L427 50ZM4 51L5 51L5 52L4 52L4 51ZM257 51L258 51L258 52L257 52L257 51ZM22 52L23 52L23 53L22 53L22 52ZM25 52L26 52L26 53L25 53L25 52ZM236 52L237 52L237 56L236 56L236 52ZM284 52L285 52L285 53L284 53L284 52ZM303 52L304 52L304 53L303 53L303 52ZM418 52L419 52L419 53L418 53L418 52ZM23 53L24 53L24 54L23 54L23 53ZM26 53L27 53L27 54L26 54L26 53ZM257 53L258 53L258 55L257 55L257 53ZM285 53L286 53L286 54L285 54L285 53ZM372 53L373 53L373 56L372 56L372 53ZM419 53L420 53L420 54L419 54L419 53ZM429 53L430 53L430 55L429 55L429 53ZM5 54L6 54L6 55L5 55L5 54ZM9 54L10 54L10 55L9 55L9 54ZM300 54L301 54L301 55L300 55L300 54ZM393 54L394 54L394 56L393 56L393 54ZM420 54L421 54L421 55L420 55L420 54ZM24 55L25 55L25 56L24 56L24 55ZM27 55L28 55L28 56L27 56L27 55ZM290 55L297 55L297 56L290 56L290 55ZM401 55L402 55L402 57L401 57L401 55ZM6 56L7 56L7 57L6 57L6 56ZM10 56L11 56L11 57L10 57L10 56ZM25 56L26 56L26 57L25 57L25 56ZM289 56L290 56L290 57L289 57L289 56ZM381 56L382 56L382 58L381 58L381 56ZM421 56L422 56L422 59L421 59L421 56ZM26 57L27 57L27 58L26 58L26 57ZM30 57L31 57L31 58L30 58L30 57ZM244 57L245 57L245 58L244 58L244 57ZM258 57L259 57L259 58L258 58L258 57ZM323 57L324 57L324 58L323 58L323 57ZM11 58L12 58L12 59L11 59L11 58ZM27 58L28 58L28 59L27 59L27 58ZM31 58L32 58L32 59L31 59L31 58ZM235 58L236 58L236 59L235 59L235 58ZM250 58L251 58L251 59L250 59L250 58ZM315 58L316 58L316 60L315 60L315 58ZM373 58L374 58L374 59L373 59L373 58ZM392 58L393 58L393 59L392 59L392 58ZM8 59L9 59L9 60L8 60L8 59ZM28 59L29 59L29 60L28 60L28 59ZM33 59L34 59L34 60L33 60L33 59ZM219 59L220 59L220 60L219 60L219 59ZM222 59L223 59L223 60L222 60L222 59ZM234 59L235 59L235 60L234 60L234 59ZM273 59L274 59L274 60L273 60L273 59ZM290 59L292 59L292 60L290 60L290 59ZM324 59L325 59L325 60L324 60L324 59ZM333 59L334 59L334 60L333 60L333 59ZM382 59L383 59L383 60L382 60L382 59ZM429 59L430 59L430 60L429 60L429 59ZM30 60L31 60L31 61L30 61L30 60ZM35 60L36 60L36 61L35 61L35 60ZM224 60L225 60L225 61L224 61L224 60ZM233 60L234 60L234 61L233 61L233 60ZM243 60L244 60L244 61L243 61L243 60ZM261 60L262 60L262 61L261 61L261 60ZM270 60L272 60L272 61L270 61L270 60ZM274 60L275 60L275 61L274 61L274 60ZM299 60L302 60L302 61L299 61L299 60ZM331 60L332 60L332 61L331 61L331 60ZM374 60L375 60L375 61L374 61L374 60ZM383 60L384 60L384 61L383 61L383 60ZM399 60L400 60L400 61L399 61L399 60ZM407 60L408 60L408 61L407 61L407 60ZM410 60L411 60L411 61L410 61L410 60ZM420 60L421 60L421 61L420 61L420 60ZM9 61L10 61L10 62L9 62L9 61ZM13 61L14 61L14 62L13 62L13 61ZM31 61L32 61L32 62L31 62L31 61ZM37 61L39 61L39 62L37 62L37 61ZM228 61L231 61L231 62L228 62L228 61ZM264 61L267 61L267 62L264 62L264 61ZM281 61L282 61L282 62L281 62L281 61ZM384 61L385 61L385 62L384 62L384 61ZM389 61L390 61L390 62L389 62L389 61ZM413 61L415 61L415 62L413 62L413 61ZM417 61L419 61L419 62L417 62L417 61ZM33 62L34 62L34 63L33 63L33 62ZM39 62L40 62L40 64L39 64L39 62ZM218 62L219 62L219 64L218 64L218 62ZM252 62L253 62L253 63L252 63L252 62ZM316 62L317 62L317 63L316 63L316 62ZM342 62L343 62L343 64L342 64L342 62ZM350 62L351 62L351 67L350 67L350 62ZM375 62L376 62L376 63L375 63L375 62ZM10 63L11 63L11 64L10 64L10 63ZM36 63L37 63L37 64L36 64L36 63ZM241 63L242 63L242 64L241 64L241 63ZM283 63L284 63L284 64L283 64L283 63ZM376 63L377 63L377 64L376 64L376 63ZM397 63L398 63L398 64L397 64L397 63ZM406 63L407 63L407 64L406 64L406 63ZM427 63L428 63L428 64L427 64L427 63ZM240 64L241 64L241 65L240 65L240 64ZM285 64L286 64L286 65L285 65L285 64ZM335 64L336 64L336 65L335 65L335 64ZM377 64L378 64L378 65L377 65L377 64ZM396 64L397 64L397 65L396 65L396 64ZM426 64L427 64L427 65L426 65L426 64ZM11 65L12 65L12 66L11 66L11 65ZM16 65L17 65L17 66L16 66L16 65ZM220 65L221 65L221 66L220 66L220 65ZM255 65L256 65L256 66L255 66L255 65ZM288 65L291 65L291 66L288 66L288 65ZM309 65L310 65L310 66L309 66L309 65ZM333 65L334 65L334 66L333 66L333 65ZM340 65L341 65L341 66L340 66L340 65ZM378 65L379 65L379 66L378 66L378 65ZM17 66L18 66L18 67L17 67L17 66ZM222 66L223 66L223 67L222 67L222 66ZM236 66L237 66L237 67L236 67L236 66ZM257 66L258 66L258 67L257 67L257 66ZM270 66L271 66L271 67L270 67L270 66ZM299 66L300 66L300 67L299 67L299 66ZM321 66L322 66L322 67L321 67L321 66ZM331 66L332 66L332 67L331 67L331 66ZM354 66L357 66L357 67L354 67L354 66ZM380 66L381 66L381 67L380 67L380 66ZM410 66L411 66L411 67L410 67L410 66ZM422 66L423 66L423 67L422 67L422 66ZM18 67L19 67L19 68L18 68L18 67ZM225 67L229 67L229 68L225 68L225 67ZM230 67L234 67L234 68L230 68L230 67ZM261 67L268 67L268 68L261 68L261 67ZM301 67L302 67L302 68L301 68L301 67ZM325 67L328 67L328 68L325 68L325 67ZM384 67L390 67L390 68L384 68L384 67ZM414 67L420 67L420 68L414 68L414 67ZM11 68L12 68L12 69L11 69L11 68ZM19 68L20 68L20 69L19 69L19 68ZM20 69L21 69L21 70L20 70L20 69ZM302 69L303 69L303 70L302 70L302 69ZM9 70L10 70L10 71L9 71L9 70ZM21 70L22 70L22 71L21 71L21 70ZM288 70L289 70L289 71L288 71L288 70ZM287 71L288 71L288 72L287 72L287 71ZM302 71L303 71L303 72L302 72L302 71ZM5 72L6 72L6 73L5 73L5 72ZM309 72L310 72L310 73L309 73L309 72ZM27 73L28 73L28 74L27 74L27 73ZM32 74L34 74L34 75L32 75L32 74ZM290 74L291 74L291 75L290 75L290 74ZM301 74L302 74L302 75L301 75L301 74ZM5 75L6 75L6 76L5 76L5 75ZM36 75L37 75L37 76L36 76L36 75ZM289 75L290 75L290 76L289 76L289 75ZM300 75L301 75L301 76L300 76L300 75ZM7 76L8 76L8 77L7 77L7 76ZM288 76L289 76L289 77L288 77L288 76ZM299 76L300 76L300 77L299 77L299 76ZM307 76L308 76L308 77L307 77L307 76ZM11 77L13 77L13 78L11 78L11 77ZM298 77L299 77L299 78L298 78L298 77ZM306 77L307 77L307 78L306 78L306 77ZM17 78L20 78L20 79L17 79L17 78ZM36 78L37 78L37 79L36 79L36 78ZM305 78L306 78L306 79L305 79L305 78ZM27 79L34 79L34 80L27 80L27 79ZM279 79L280 79L280 80L279 80L279 79ZM286 79L287 79L287 80L286 80L286 79ZM295 79L296 79L296 80L295 80L295 79ZM304 79L305 79L305 80L304 80L304 79ZM287 80L288 80L288 81L287 81L287 80ZM290 80L292 80L292 81L290 81L290 80ZM303 80L304 80L304 81L303 81L303 80ZM300 82L301 82L301 83L300 83L300 82ZM279 83L280 83L280 84L279 84L279 83ZM298 83L299 83L299 84L298 84L298 83ZM326 83L327 83L327 84L326 84L326 83ZM280 84L281 84L281 85L280 85L280 84ZM296 84L297 84L297 85L296 85L296 84ZM310 84L313 84L313 85L310 85L310 84ZM317 84L318 84L318 85L317 85L317 84ZM319 84L320 84L320 86L319 86L319 84ZM283 85L285 85L285 86L283 86L283 85ZM289 85L293 85L293 86L289 86L289 85ZM308 85L309 85L309 86L308 86L308 85ZM314 85L315 85L315 87L313 87L313 86L314 86L314 85ZM307 86L308 86L308 88L307 88L307 86ZM310 86L311 86L311 87L310 87L310 86ZM317 86L319 86L319 87L317 87L317 86ZM324 86L325 86L325 87L324 87L324 86ZM344 86L346 86L346 89L345 89L345 87L344 87L344 86ZM361 86L363 86L363 87L361 87L361 86ZM343 87L344 87L344 89L343 89L343 87ZM360 88L361 88L361 89L360 89L360 88ZM307 89L308 89L308 90L307 90L307 89ZM317 89L318 89L318 90L317 90L317 89ZM319 89L320 89L320 100L319 100L319 89ZM324 89L325 89L325 90L324 90L324 89ZM332 89L333 89L333 90L332 90L332 89ZM334 89L335 89L335 90L334 90L334 89ZM338 89L339 89L339 90L338 90L338 89ZM342 89L343 89L343 90L342 90L342 89ZM352 89L353 89L353 90L352 90L352 89ZM365 89L366 89L366 91L365 91L365 89ZM369 89L370 89L370 90L369 90L369 89ZM373 89L374 89L374 90L373 90L373 89ZM383 89L384 89L384 90L383 90L383 89ZM387 89L388 89L388 90L387 90L387 89ZM392 89L393 89L393 90L392 90L392 89ZM396 89L397 89L397 90L396 90L396 89ZM406 89L409 89L409 90L406 90L406 89ZM410 89L411 89L411 98L410 98L410 89ZM412 89L413 89L413 90L412 90L412 89ZM416 89L417 89L417 90L416 90L416 89ZM418 89L419 89L419 100L418 100L418 89ZM422 89L423 89L423 90L422 90L422 89ZM424 89L425 89L425 90L424 90L424 89ZM430 89L431 89L431 90L430 90L430 89ZM434 89L435 89L435 90L434 90L434 89ZM331 90L332 90L332 91L331 91L331 90ZM339 90L340 90L340 91L339 91L339 90ZM371 90L372 90L372 91L371 91L371 90ZM374 90L375 90L375 91L374 91L374 90ZM385 90L386 90L386 91L385 91L385 90ZM388 90L389 90L389 91L388 91L388 90ZM391 90L392 90L392 91L391 91L391 90ZM394 90L395 90L395 91L394 91L394 90ZM403 90L405 90L405 91L403 91L403 90ZM429 90L430 90L430 91L429 91L429 90ZM432 90L433 90L433 91L432 91L432 90ZM329 91L330 91L330 92L329 92L329 91ZM334 91L335 91L335 92L334 92L334 91ZM345 91L346 91L346 98L345 98L345 91ZM357 91L358 91L358 92L357 92L357 91ZM360 91L361 91L361 99L360 99L360 91ZM362 91L363 91L363 97L362 97L362 91ZM367 91L368 91L368 92L367 92L367 91ZM372 91L373 91L373 92L372 92L372 91ZM384 91L385 91L385 93L384 93L384 91ZM402 91L403 91L403 92L402 92L402 91ZM407 91L408 91L408 92L407 92L407 91ZM421 91L422 91L422 100L421 100L421 91ZM428 91L429 91L429 93L428 93L428 91ZM327 92L328 92L328 94L327 94L327 92ZM337 92L338 92L338 100L337 100L337 92ZM355 92L356 92L356 94L355 94L355 92ZM369 92L370 92L370 94L369 94L369 92ZM390 92L391 92L391 93L390 93L390 92ZM405 92L406 92L406 95L405 95L405 92ZM423 92L424 92L424 100L423 100L423 92ZM434 92L435 92L435 93L434 93L434 92ZM372 93L373 93L373 94L372 94L372 93ZM382 93L383 93L383 94L382 94L382 93ZM385 93L386 93L386 94L385 94L385 93ZM392 93L393 93L393 94L392 94L392 93ZM430 93L431 93L431 97L430 97L430 93ZM321 94L322 94L322 97L321 97L321 94ZM329 94L330 94L330 95L329 95L329 94ZM349 94L350 94L350 96L349 96L349 94ZM357 94L358 94L358 95L357 95L357 94ZM383 94L384 94L384 95L383 95L383 94ZM407 94L408 94L408 95L407 95L407 94ZM312 95L313 95L313 98L312 98L312 95ZM324 95L328 95L328 96L324 96L324 95ZM352 95L356 95L356 96L352 96L352 95ZM369 95L373 95L373 96L370 96L370 98L369 98L369 95ZM384 95L385 95L385 96L384 96L384 95ZM393 95L396 95L396 96L393 96L393 95ZM404 95L405 95L405 96L404 96L404 95ZM388 96L389 96L389 97L388 97L388 96ZM392 96L393 96L393 97L392 97L392 96ZM405 96L406 96L406 97L405 97L405 96ZM434 96L435 96L435 98L434 98L434 96ZM324 97L325 97L325 98L324 98L324 97ZM352 97L353 97L353 98L352 98L352 97ZM390 97L391 97L391 98L390 98L390 97ZM402 97L403 97L403 98L402 98L402 97ZM428 97L429 97L429 98L428 98L428 97ZM309 98L310 98L310 99L309 99L309 98ZM311 98L312 98L312 99L311 99L311 98ZM314 98L315 98L315 99L314 99L314 98ZM325 98L326 98L326 99L325 99L325 98ZM327 98L329 98L329 99L327 99L327 98ZM343 98L344 98L344 99L343 99L343 98ZM347 98L348 98L348 99L347 99L347 98ZM350 98L351 98L351 99L350 99L350 98ZM353 98L354 98L354 99L353 99L353 98ZM355 98L358 98L358 99L355 99L355 98ZM367 98L368 98L368 99L367 99L367 98ZM370 98L371 98L371 99L370 99L370 98ZM372 98L375 98L375 100L374 100L374 99L372 99L372 98ZM382 98L384 98L384 99L382 99L382 98ZM385 98L386 98L386 99L385 99L385 98ZM388 98L389 98L389 99L388 99L388 98ZM394 98L395 98L395 99L394 99L394 98ZM396 98L397 98L397 99L396 99L396 98ZM405 98L407 98L407 99L405 99L405 98ZM413 98L414 98L414 99L413 99L413 98ZM415 98L416 98L416 99L415 99L415 98ZM431 98L432 98L432 99L431 99L431 98ZM433 98L434 98L434 99L433 99L433 98ZM365 99L366 99L366 100L365 100L365 99ZM368 99L369 99L369 100L368 100L368 99ZM391 99L392 99L392 100L391 100L391 99ZM401 99L402 99L402 100L401 100L401 99ZM429 99L430 99L430 100L429 100L429 99ZM435 99L436 99L436 100L435 100L435 99ZM309 100L312 100L312 101L309 101L309 100ZM325 100L328 100L328 101L325 101L325 100ZM345 100L347 100L347 101L345 101L345 100ZM353 100L356 100L356 101L353 101L353 100ZM362 100L365 100L365 101L362 101L362 100ZM370 100L373 100L373 101L370 101L370 100ZM383 100L386 100L386 101L383 101L383 100ZM393 100L396 100L396 101L393 101L393 100ZM413 100L415 100L415 101L413 101L413 100ZM431 100L434 100L434 101L431 101L431 100ZM402 101L403 101L403 102L402 102L402 101ZM406 101L407 101L407 102L406 102L406 101ZM408 102L409 102L409 103L408 103L408 102ZM405 103L406 103L406 104L405 104L405 103ZM399 104L400 104L400 106L399 106L399 104ZM402 104L404 104L404 105L402 105L402 104Z"></path>
<path fill="#2395d2" fill-rule="evenodd" d="M48 4L60 4L60 12L58 12L58 11L57 11L57 10L54 10L54 9L51 9L51 8L48 8L48 7L47 7L47 5L48 5L48 4ZM66 5L68 5L68 6L66 6L66 5ZM72 6L73 6L73 7L72 7L72 6ZM75 7L76 7L76 8L75 8L75 7ZM77 11L78 11L78 12L77 12L77 11ZM60 12L61 12L61 13L60 13L60 12ZM73 13L74 13L74 14L73 14L73 13ZM72 14L73 14L73 15L72 15L72 14ZM230 15L232 15L232 16L230 16L230 15ZM234 15L236 15L236 16L234 16L234 15ZM71 16L72 16L72 18L71 18L71 16ZM226 16L229 16L229 21L230 21L230 22L229 22L229 23L228 23L228 25L227 25L227 29L228 29L228 31L229 31L229 32L230 32L230 33L229 33L229 42L228 42L228 41L227 41L227 40L226 40L226 39L225 39L225 38L224 38L224 37L223 37L223 36L222 36L222 34L221 34L221 33L220 33L220 30L219 30L219 24L220 24L220 21L221 21L221 20L222 20L222 19L223 19L223 18L224 18L224 17L226 17L226 16ZM44 20L46 20L46 21L49 21L49 22L51 22L51 23L53 23L53 24L54 24L54 25L56 25L56 26L57 26L57 27L58 27L58 28L59 28L59 29L60 29L60 31L61 31L61 32L62 32L62 35L63 35L63 39L64 39L64 41L62 41L62 38L61 38L61 35L60 35L60 33L59 33L59 31L58 31L58 30L57 30L57 29L56 29L56 28L55 28L55 27L54 27L54 26L53 26L53 25L51 25L51 24L49 24L49 23L47 23L47 22L44 22L44 20ZM68 20L69 20L69 21L68 21L68 20ZM72 20L73 20L73 21L72 21L72 20ZM69 21L70 21L70 22L69 22L69 21ZM238 21L239 21L239 22L238 22L238 21ZM242 21L243 21L243 22L242 22L242 21ZM74 24L75 24L75 25L74 25L74 24ZM72 26L73 26L73 27L72 27L72 26ZM75 26L76 26L76 27L75 27L75 26ZM73 28L74 28L74 29L73 29L73 28ZM260 30L261 30L261 31L260 31L260 30ZM268 30L269 30L269 31L268 31L268 30ZM290 30L291 30L291 36L290 36L290 37L289 37L289 47L290 47L290 49L291 49L291 55L290 55L290 56L289 56L289 59L290 59L290 60L291 60L291 65L286 65L286 64L284 64L284 63L282 63L282 61L281 61L281 58L282 58L282 57L283 57L283 56L284 56L284 55L285 55L285 54L286 54L286 53L285 53L285 52L284 52L284 51L283 51L283 49L282 49L282 46L281 46L281 40L282 40L282 37L283 37L283 35L284 35L284 34L285 34L285 33L286 33L286 32L288 32L288 31L290 31L290 30ZM297 30L298 30L298 31L297 31L297 30ZM317 30L322 30L322 32L323 32L323 37L324 37L324 42L323 42L323 58L324 58L324 60L325 60L325 61L330 61L330 62L326 62L326 67L322 67L322 66L319 66L319 65L318 65L318 64L317 64L317 62L316 62L316 58L315 58L315 50L316 50L316 34L315 34L315 32L316 32L316 31L317 31L317 30ZM362 30L363 30L363 31L362 31L362 30ZM383 30L384 30L384 37L383 37L383 38L382 38L382 40L381 40L381 44L380 44L380 53L381 53L381 58L382 58L382 60L383 60L383 61L384 61L384 67L381 67L381 66L379 66L379 65L378 65L378 64L377 64L377 63L376 63L376 62L375 62L375 60L374 60L374 58L373 58L373 53L372 53L372 45L373 45L373 40L374 40L374 38L375 38L375 36L376 36L376 35L377 35L377 33L379 33L379 32L380 32L380 31L383 31L383 30ZM391 30L392 30L392 31L391 31L391 30ZM415 30L416 30L416 38L415 38L415 40L416 40L416 50L415 50L415 49L413 49L413 48L412 48L412 47L411 47L411 46L410 46L410 45L409 45L409 44L408 44L408 41L407 41L407 38L408 38L408 35L409 35L409 33L411 33L411 32L412 32L412 31L415 31L415 30ZM423 30L424 30L424 31L423 31L423 30ZM78 31L79 31L79 32L78 32L78 31ZM257 31L260 31L260 36L261 36L261 35L262 35L262 36L261 36L261 37L260 37L260 38L259 38L259 40L258 40L258 43L257 43L257 46L260 46L260 51L257 51L257 55L258 55L258 58L259 58L259 59L260 59L260 60L261 60L261 61L260 61L260 67L258 67L258 66L256 66L256 65L254 65L254 64L253 64L253 62L252 62L252 61L251 61L251 58L250 58L250 41L251 41L251 38L252 38L252 36L253 36L253 35L254 35L254 34L255 34L255 33L256 33L256 32L257 32L257 31ZM270 31L271 31L271 32L270 32L270 31ZM300 31L302 31L302 32L300 32L300 31ZM335 31L336 31L336 32L335 32L335 31ZM394 31L395 31L395 32L394 32L394 31ZM426 31L427 31L427 32L426 32L426 31ZM351 32L356 32L356 33L358 33L358 38L359 38L359 37L360 37L360 38L359 38L359 39L358 39L358 66L354 66L354 67L351 67L351 35L350 35L350 33L351 33L351 32ZM79 33L80 33L80 34L79 34L79 33ZM230 33L231 33L231 34L230 34L230 33ZM334 33L335 33L335 34L334 34L334 33ZM397 33L398 33L398 34L397 34L397 33ZM428 33L429 33L429 34L428 34L428 33ZM231 34L232 34L232 35L231 35L231 34ZM292 34L295 34L295 35L292 35L292 34ZM398 34L399 34L399 35L398 35L398 34ZM232 35L233 35L233 36L232 36L232 35ZM385 35L386 35L386 36L385 36L385 35ZM389 35L390 35L390 36L389 36L389 35ZM417 35L418 35L418 36L417 36L417 35ZM422 35L423 35L423 36L422 36L422 35ZM233 36L234 36L234 37L233 37L233 36ZM305 36L306 36L306 38L305 38L305 36ZM362 36L363 36L363 37L362 37L362 36ZM364 36L365 36L365 37L364 37L364 36ZM427 36L428 36L428 37L427 37L427 36ZM234 37L235 37L235 38L234 38L234 37ZM298 37L299 37L299 38L298 38L298 37ZM78 38L79 38L79 39L78 39L78 38ZM235 38L236 38L236 39L235 39L235 38ZM236 39L237 39L237 40L236 40L236 39ZM275 39L276 39L276 40L275 40L275 39ZM237 40L238 40L238 41L237 41L237 40ZM268 40L269 40L269 41L268 41L268 40ZM299 40L300 40L300 41L299 41L299 40ZM306 40L307 40L307 41L306 41L306 40ZM393 40L394 40L394 41L393 41L393 40ZM401 41L402 41L402 42L401 42L401 41ZM229 42L230 42L230 43L229 43L229 42ZM239 42L240 42L240 43L239 43L239 42ZM20 43L22 43L22 47L23 47L23 49L24 49L24 51L25 51L25 53L26 53L26 54L27 54L27 56L29 56L29 57L30 57L30 58L31 58L31 59L33 59L33 60L35 60L35 61L37 61L37 62L39 62L39 64L37 64L37 63L34 63L34 62L32 62L32 61L31 61L31 60L29 60L29 59L28 59L28 58L27 58L27 57L26 57L26 56L25 56L25 55L24 55L24 53L23 53L23 52L22 52L22 49L21 49L21 45L20 45L20 43ZM230 43L231 43L231 44L230 44L230 43ZM240 43L241 43L241 44L240 44L240 43ZM231 44L232 44L232 45L231 45L231 44ZM241 44L242 44L242 45L241 45L241 44ZM268 44L269 44L269 45L268 45L268 44ZM419 44L420 44L420 45L419 45L419 44ZM5 45L7 45L7 46L8 46L8 51L9 51L9 55L10 55L10 57L11 57L11 59L12 59L12 60L13 60L13 62L14 62L14 63L15 63L15 64L16 64L16 66L17 66L17 78L13 78L13 77L8 77L8 76L6 76L6 75L5 75L5 73L6 73L6 72L8 72L8 71L10 71L10 70L11 70L11 69L12 69L12 65L11 65L11 63L10 63L10 61L9 61L9 59L8 59L8 58L7 58L7 56L6 56L6 54L5 54L5 51L4 51L4 46L5 46L5 45ZM299 45L300 45L300 47L299 47L299 45ZM306 45L307 45L307 46L306 46L306 45ZM394 45L395 45L395 51L394 51L394 45ZM422 46L423 46L423 47L422 47L422 46ZM423 47L424 47L424 48L423 48L423 47ZM275 48L276 48L276 49L275 49L275 48ZM235 49L236 49L236 50L235 50L235 49ZM273 49L274 49L274 50L273 50L273 49ZM268 50L270 50L270 51L268 51L268 50ZM292 50L293 50L293 51L292 51L292 50ZM296 50L297 50L297 51L296 51L296 50ZM244 51L245 51L245 52L244 52L244 51ZM417 51L418 51L418 52L417 52L417 51ZM428 52L429 52L429 53L428 53L428 52ZM301 53L302 53L302 54L301 54L301 53ZM299 54L300 54L300 55L299 55L299 54ZM421 55L422 55L422 56L421 56L421 55ZM429 55L430 55L430 56L429 56L429 55ZM236 56L237 56L237 57L236 57L236 56ZM244 56L245 56L245 57L244 57L244 56ZM393 56L394 56L394 57L393 57L393 56ZM220 58L221 58L221 59L222 59L222 60L224 60L224 61L228 61L228 62L229 62L229 67L223 67L223 66L221 66L221 65L219 65L219 60L220 60L220 58ZM400 58L401 58L401 59L400 59L400 58ZM429 58L430 58L430 59L429 59L429 58ZM421 59L422 59L422 60L421 60L421 59ZM297 60L299 60L299 61L297 61L297 60ZM332 60L333 60L333 61L332 61L332 60ZM391 60L392 60L392 61L391 61L391 60ZM408 60L410 60L410 61L413 61L413 62L416 62L416 67L411 67L411 66L408 66L408 65L407 65L407 61L408 61L408 60ZM231 61L232 61L232 62L231 62L231 61ZM242 61L243 61L243 62L242 62L242 61ZM263 61L264 61L264 62L263 62L263 61ZM267 61L268 61L268 62L267 62L267 61ZM274 61L275 61L275 62L274 62L274 61ZM304 61L305 61L305 62L304 62L304 61ZM390 61L391 61L391 62L390 62L390 61ZM419 61L420 61L420 62L419 62L419 61ZM428 61L429 61L429 62L428 62L428 61ZM306 62L307 62L307 63L306 63L306 62ZM387 62L388 62L388 63L387 63L387 62ZM274 63L275 63L275 64L274 64L274 63ZM341 64L342 64L342 65L341 65L341 64ZM238 65L239 65L239 66L238 66L238 65ZM272 65L273 65L273 66L272 66L272 65ZM291 65L293 65L293 66L291 66L291 65ZM337 65L338 65L338 66L337 66L337 65ZM339 65L340 65L340 66L339 66L339 65ZM394 65L395 65L395 66L394 66L394 65ZM424 65L425 65L425 66L424 66L424 65ZM300 66L301 66L301 67L300 67L300 66ZM330 66L331 66L331 67L330 67L330 66ZM392 66L393 66L393 67L392 67L392 66ZM421 66L422 66L422 67L421 67L421 66ZM229 67L230 67L230 68L229 68L229 67ZM302 68L303 68L303 69L302 69L302 68ZM290 69L291 69L291 70L292 70L292 71L291 71L291 73L292 73L292 74L290 74L290 75L289 75L289 76L288 76L288 78L287 78L287 79L286 79L286 80L287 80L287 81L291 81L291 85L289 85L289 86L285 86L285 85L281 85L281 84L280 84L280 83L279 83L279 80L280 80L280 78L281 78L281 77L282 77L282 76L283 76L283 75L284 75L284 74L285 74L285 73L286 73L286 72L288 72L288 71L289 71L289 70L290 70L290 69ZM22 71L23 71L23 72L22 72L22 71ZM24 72L25 72L25 73L24 73L24 72ZM302 72L303 72L303 73L302 73L302 72ZM26 73L27 73L27 74L26 74L26 73ZM30 74L32 74L32 75L30 75L30 74ZM308 74L309 74L309 75L308 75L308 74ZM20 78L23 78L23 79L20 79L20 78ZM297 78L298 78L298 79L297 79L297 78ZM292 80L294 80L294 81L292 81L292 80ZM301 81L302 81L302 82L301 82L301 81ZM297 83L298 83L298 84L297 84L297 83ZM327 83L328 83L328 84L327 84L327 83ZM295 84L296 84L296 85L295 85L295 84ZM309 85L311 85L311 86L310 86L310 90L311 90L311 93L310 93L310 92L309 92L309 91L308 91L308 89L307 89L307 88L308 88L308 86L309 86L309 85ZM317 85L318 85L318 86L317 86L317 85ZM325 85L326 85L326 87L325 87L325 85ZM344 87L345 87L345 89L348 89L348 90L345 90L345 98L346 98L346 99L345 99L345 100L344 100L344 98L343 98L343 91L342 91L342 90L343 90L343 89L344 89L344 87ZM361 87L363 87L363 89L365 89L365 90L362 90L362 97L363 97L363 98L362 98L362 100L361 100L361 91L359 91L359 90L360 90L360 89L361 89L361 87ZM318 89L319 89L319 90L318 90L318 89ZM327 89L328 89L328 90L327 90L327 89ZM335 89L336 89L336 90L337 90L337 89L338 89L338 90L337 90L337 91L334 91L334 100L332 100L332 90L335 90L335 89ZM355 89L356 89L356 90L355 90L355 89ZM370 89L371 89L371 91L370 91L370 92L369 92L369 94L370 94L370 95L369 95L369 98L370 98L370 100L369 100L369 99L368 99L368 98L367 98L367 92L368 92L368 90L370 90L370 89ZM372 89L373 89L373 90L372 90L372 89ZM384 89L385 89L385 91L384 91L384 93L385 93L385 95L384 95L384 94L383 94L383 93L382 93L382 90L384 90L384 89ZM393 89L394 89L394 91L393 91L393 93L392 93L392 94L394 94L394 95L393 95L393 96L392 96L392 97L393 97L393 98L394 98L394 100L392 100L392 99L391 99L391 97L390 97L390 93L391 93L391 91L392 91L392 90L393 90L393 89ZM402 89L403 89L403 91L402 91L402 94L403 94L403 95L404 95L404 96L405 96L405 97L402 97L402 98L405 98L405 99L403 99L403 100L402 100L402 99L400 99L400 97L401 97L401 95L400 95L400 91L401 91L401 90L402 90L402 89ZM405 89L406 89L406 90L405 90L405 89ZM411 89L412 89L412 90L413 90L413 99L414 99L414 100L411 100L411 89ZM417 89L418 89L418 90L417 90L417 89ZM426 89L427 89L427 90L426 90L426 89ZM431 89L432 89L432 91L431 91L431 93L430 93L430 97L431 97L431 99L432 99L432 100L430 100L430 99L429 99L429 97L428 97L428 93L429 93L429 91L430 91L430 90L431 90L431 89ZM317 90L318 90L318 100L317 100L317 90ZM323 90L327 90L327 91L325 91L325 92L324 92L324 94L325 94L325 95L324 95L324 98L325 98L325 100L323 100L323 99L322 99L322 91L323 91L323 90ZM351 90L355 90L355 91L353 91L353 92L352 92L352 94L353 94L353 95L352 95L352 98L353 98L353 100L351 100L351 98L350 98L350 91L351 91L351 90ZM386 90L387 90L387 91L386 91L386 90ZM395 90L396 90L396 91L395 91L395 90ZM397 90L398 90L398 91L397 91L397 90ZM408 90L409 90L409 91L408 91L408 90ZM416 90L417 90L417 98L416 98L416 90ZM421 90L424 90L424 92L423 92L423 100L422 100L422 91L421 91L421 90ZM433 90L434 90L434 91L433 91L433 90ZM327 91L328 91L328 92L327 92L327 91ZM337 91L338 91L338 92L337 92L337 91ZM339 91L340 91L340 92L339 92L339 91ZM355 91L356 91L356 92L355 92L355 91ZM405 91L406 91L406 92L405 92L405 91ZM434 91L435 91L435 92L434 92L434 91ZM436 91L437 91L437 92L436 92L436 91ZM329 92L330 92L330 94L329 94L329 92ZM357 92L358 92L358 94L357 94L357 92ZM407 92L408 92L408 94L407 94L407 92ZM311 93L312 93L312 94L311 94L311 93ZM314 94L315 94L315 95L314 95L314 94ZM386 94L387 94L387 95L386 95L386 94ZM385 95L386 95L386 96L385 96L385 95ZM406 95L407 95L407 96L406 96L406 95ZM386 97L387 97L387 98L386 98L386 97ZM388 97L389 97L389 98L388 98L388 97ZM436 97L437 97L437 98L436 98L436 97ZM307 98L309 98L309 99L311 99L311 100L307 100L307 98ZM397 98L398 98L398 100L397 100L397 98ZM313 99L314 99L314 100L313 100L313 99ZM382 99L385 99L385 100L382 100L382 99ZM387 99L388 99L388 100L387 100L387 99ZM416 99L417 99L417 100L416 100L416 99ZM406 100L407 100L407 101L406 101L406 100ZM408 100L409 100L409 102L408 102L408 100ZM401 102L403 102L403 103L402 103L402 105L403 105L403 106L400 106L400 103L401 103L401 102ZM406 102L407 102L407 103L406 103L406 102ZM407 103L408 103L408 104L407 104L407 103ZM404 104L405 104L405 106L404 106L404 104ZM406 104L407 104L407 105L406 105L406 104Z"></path>
<path fill="#77ac42" fill-rule="evenodd" d="M32 4L39 4L39 7L38 7L38 8L32 8L32 9L29 9L29 10L26 10L26 11L25 11L25 12L23 12L23 13L21 13L21 14L20 14L20 15L19 15L19 16L17 16L17 17L16 17L16 18L15 18L15 19L14 19L14 20L13 20L13 22L12 22L12 23L11 23L11 25L10 25L10 28L9 28L9 33L8 33L8 36L5 36L5 33L4 33L4 27L5 27L5 18L6 18L6 12L7 12L7 8L8 8L8 5L11 5L11 6L12 6L12 8L13 8L13 10L14 10L14 11L16 11L16 12L17 12L17 11L20 11L20 10L22 10L22 9L24 9L24 8L26 8L26 7L27 7L27 6L30 6L30 5L32 5L32 4ZM180 15L186 15L186 16L190 16L190 17L192 17L192 18L193 18L193 19L194 19L194 21L193 21L193 23L191 23L191 22L188 22L188 21L180 21L180 22L177 22L177 23L176 23L176 24L174 24L174 26L173 26L173 27L172 27L172 29L171 29L171 32L170 32L170 38L169 38L169 46L170 46L170 52L171 52L171 55L172 55L172 57L173 57L173 58L174 58L174 59L175 59L175 60L177 60L177 61L179 61L179 62L186 62L186 61L188 61L188 44L186 44L186 43L185 43L185 42L184 42L184 38L195 38L195 44L196 44L196 63L195 63L195 64L194 64L194 65L192 65L192 66L190 66L190 67L175 67L175 66L172 66L172 65L170 65L170 64L169 64L169 63L168 63L168 62L167 62L167 61L166 61L166 60L165 60L165 58L164 58L164 56L163 56L163 52L162 52L162 46L161 46L161 38L162 38L162 32L163 32L163 29L164 29L164 26L165 26L165 25L166 25L166 23L167 23L167 22L168 22L168 20L169 20L169 19L171 19L171 18L173 18L173 17L175 17L175 16L180 16L180 15ZM95 16L106 16L106 17L111 17L111 18L113 18L113 19L115 19L115 20L116 20L116 21L118 21L118 23L119 23L119 24L120 24L120 26L121 26L121 28L122 28L122 32L123 32L123 47L122 47L122 52L121 52L121 55L120 55L120 57L119 57L119 59L118 59L118 60L117 60L117 61L116 61L116 62L115 62L115 63L114 63L114 64L112 64L112 65L109 65L109 66L105 66L105 67L97 67L97 66L90 66L90 17L95 17L95 16ZM130 16L147 16L147 17L150 17L150 18L152 18L152 19L153 19L153 20L154 20L154 21L155 21L155 23L156 23L156 26L157 26L157 36L156 36L156 39L155 39L155 40L154 40L154 42L153 42L153 43L152 43L152 44L150 44L150 45L147 45L147 46L141 46L141 45L140 45L140 42L144 42L144 41L146 41L146 39L147 39L147 38L148 38L148 35L149 35L149 27L148 27L148 25L147 25L147 23L146 23L146 22L143 22L143 21L138 21L138 65L137 65L137 66L130 66L130 16ZM36 20L41 20L41 21L40 21L40 22L36 22L36 23L34 23L34 24L32 24L32 25L30 25L30 26L29 26L29 27L28 27L28 28L27 28L27 29L26 29L26 30L25 30L25 31L24 31L24 33L23 33L23 35L22 35L22 32L23 32L23 30L24 30L24 29L25 29L25 27L26 27L26 26L27 26L27 25L28 25L28 24L30 24L30 23L31 23L31 22L33 22L33 21L36 21L36 20ZM98 22L97 22L97 61L106 61L106 60L108 60L108 59L109 59L109 58L110 58L110 57L111 57L111 56L112 56L112 54L113 54L113 50L114 50L114 44L115 44L115 35L114 35L114 30L113 30L113 28L112 28L112 26L111 26L111 25L110 25L110 24L109 24L109 23L107 23L107 22L98 22ZM62 44L63 44L63 45L64 45L64 46L63 46L63 49L62 49L62 51L61 51L61 53L60 53L60 55L59 55L59 56L58 56L58 57L57 57L57 58L56 58L56 59L55 59L55 60L53 60L53 61L52 61L52 62L49 62L49 63L45 63L45 62L47 62L47 61L49 61L49 60L51 60L51 59L53 59L53 58L54 58L54 57L55 57L55 56L56 56L56 55L57 55L57 54L58 54L58 53L59 53L59 51L60 51L60 49L61 49L61 46L62 46L62 44ZM76 45L77 45L77 46L78 46L78 48L79 48L79 56L78 56L78 66L77 66L77 71L76 71L76 75L75 75L75 77L72 77L72 76L71 76L71 74L70 74L70 72L69 72L69 71L63 71L63 72L61 72L61 73L59 73L59 74L58 74L58 75L56 75L56 76L54 76L54 77L51 77L51 78L45 78L45 77L44 77L44 75L47 75L47 74L52 74L52 73L55 73L55 72L57 72L57 71L59 71L59 70L60 70L60 69L62 69L62 68L63 68L63 67L64 67L64 66L66 66L66 65L67 65L67 64L68 64L68 63L69 63L69 62L70 62L70 60L71 60L71 59L72 59L72 57L73 57L73 54L74 54L74 48L75 48L75 46L76 46L76 45Z"></path>
</svg>